<?xml version="1.0" standalone="no"?>
<!DOCTYPE svg PUBLIC "-//W3C//DTD SVG 20010904//EN"
 "http://www.w3.org/TR/2001/REC-SVG-20010904/DTD/svg10.dtd">
<svg version="1.0" xmlns="http://www.w3.org/2000/svg"
 width="256.000000pt" height="256.000000pt" viewBox="0 0 256.000000 256.000000"
 preserveAspectRatio="xMidYMid meet">
<metadata>
Created by potrace 1.11, written by Peter Selinger 2001-2013
</metadata>
<g transform="translate(0.000000,256.000000) scale(0.100000,-0.100000)"
fill="#000000" stroke="none">
<path d="M0 1280 l0 -1280 1280 0 1280 0 0 1280 0 1280 -1280 0 -1280 0 0
-1280z m817 504 c-3 -3 -12 -4 -19 -1 -8 3 -5 6 6 6 11 1 17 -2 13 -5z m86 -1
c-7 -2 -19 -2 -25 0 -7 3 -2 5 12 5 14 0 19 -2 13 -5z m-137 -18 c-11 -8 -28
-27 -38 -42 -10 -16 -18 -23 -18 -17 0 14 54 74 67 74 4 0 -1 -7 -11 -15z
m181 9 c-3 -3 -12 -4 -19 -1 -8 3 -5 6 6 6 11 1 17 -2 13 -5z m73 -26 c10 -6
7 -7 -10 -2 -14 3 -32 11 -40 16 -10 6 -7 7 10 2 14 -3 32 -11 40 -16z m63
-24 c35 -18 97 -73 97 -87 0 -5 -12 6 -26 23 -15 17 -47 42 -73 55 -25 13 -42
24 -38 25 4 0 22 -7 40 -16z m-244 3 c-2 -1 -15 -11 -29 -22 l-25 -20 19 23
c11 12 24 22 29 22 6 0 8 -1 6 -3z m54 -4 c-7 -2 -21 -2 -30 0 -10 3 -4 5 12
5 17 0 24 -2 18 -5z m-26 -19 c-3 -3 -12 -4 -19 -1 -8 3 -5 6 6 6 11 1 17 -2
13 -5z m-62 -55 c-13 -24 -25 -40 -25 -35 0 11 43 87 47 82 2 -2 -8 -23 -22
-47z m102 45 c-3 -3 -12 -4 -19 -1 -8 3 -5 6 6 6 11 1 17 -2 13 -5z m93 -4 c8
-5 11 -10 5 -10 -5 0 -17 5 -25 10 -8 5 -10 10 -5 10 6 0 17 -5 25 -10z m-309
-47 c-11 -21 -20 -35 -21 -31 0 12 33 78 38 74 2 -2 -6 -21 -17 -43z m92 22
c-3 -9 -8 -14 -10 -11 -3 3 -2 9 2 15 9 16 15 13 8 -4z m287 -7 c19 -13 35
-30 37 -38 3 -10 1 -9 -7 3 -6 9 -28 26 -48 37 -20 10 -32 19 -26 20 6 0 26
-10 44 -22z m-70 2 c8 -5 11 -10 5 -10 -5 0 -17 5 -25 10 -8 5 -10 10 -5 10 6
0 17 -5 25 -10z m64 -31 c18 -14 26 -29 25 -47 l-2 -27 -4 28 c-3 18 -16 35
-36 48 -18 10 -27 19 -21 19 6 0 23 -9 38 -21z m-313 -36 c-12 -20 -14 -14 -5
12 4 9 9 14 11 11 3 -2 0 -13 -6 -23z m436 -10 c-3 -10 -5 -4 -5 12 0 17 2 24
5 18 2 -7 2 -21 0 -30z m-526 -10 c-12 -20 -14 -14 -5 12 4 9 9 14 11 11 3 -2
0 -13 -6 -23z m105 -10 c-8 -15 -15 -25 -16 -21 0 12 23 58 27 54 3 -2 -2 -17
-11 -33z m-35 -20 c-12 -20 -14 -14 -5 12 4 9 9 14 11 11 3 -2 0 -13 -6 -23z
m446 -5 c-3 -8 -6 -5 -6 6 -1 11 2 17 5 13 3 -3 4 -12 1 -19z m-541 -29 c-9
-19 -15 -29 -16 -22 0 15 22 64 27 60 2 -2 -3 -19 -11 -38z m433 -8 c-7 -23
-14 -39 -16 -37 -3 2 1 23 8 45 7 23 14 39 16 37 3 -2 -1 -23 -8 -45z m-330
-10 c-6 -18 -13 -30 -15 -28 -2 2 1 18 7 36 6 18 13 30 15 28 2 -2 -1 -18 -7
-36z m-43 -47 c-14 -38 -25 -64 -25 -58 -1 15 40 136 45 131 2 -2 -7 -35 -20
-73z m434 46 c8 -5 11 -10 5 -10 -5 0 -17 5 -25 10 -8 5 -10 10 -5 10 6 0 17
-5 25 -10z m493 3 c-7 -2 -19 -2 -25 0 -7 3 -2 5 12 5 14 0 19 -2 13 -5z m-57
-16 c-10 -7 -27 -24 -38 -38 -11 -13 -16 -17 -12 -9 11 24 46 60 58 60 5 0 2
-6 -8 -13z m129 3 c25 -11 -1 -11 -35 0 -20 6 -21 8 -5 8 11 0 29 -3 40 -8z
m-570 -21 c-11 -6 -31 -23 -43 -38 -20 -22 -22 -22 -13 -4 12 24 49 53 66 53
5 0 1 -5 -10 -11z m98 4 c-7 -2 -19 -2 -25 0 -7 3 -2 5 12 5 14 0 19 -2 13 -5z
m72 -18 c39 -17 21 -18 -25 0 -19 7 -28 14 -20 14 8 0 29 -6 45 -14z m-581
-29 c-3 -15 -8 -25 -11 -23 -2 3 -1 17 3 31 3 15 8 25 11 23 2 -3 1 -17 -3
-31z m320 -15 c-9 -23 -18 -40 -20 -38 -2 2 4 22 13 45 9 23 18 40 20 38 2 -2
-4 -22 -13 -45z m-430 0 c-4 -17 -9 -30 -11 -27 -3 2 -2 19 2 36 9 41 17 33 9
-9z m1236 24 c14 -8 21 -14 15 -14 -5 0 -21 6 -35 14 -14 8 -20 14 -15 14 6 0
21 -6 35 -14z m-447 -21 c57 -29 94 -58 109 -89 5 -11 -2 -5 -17 13 -15 18
-57 48 -94 67 -36 19 -62 34 -58 35 4 0 31 -12 60 -26z m254 20 c-3 -3 -12 -4
-19 -1 -8 3 -5 6 6 6 11 1 17 -2 13 -5z m-64 -44 c-15 -22 -30 -40 -35 -40 -5
0 -4 6 2 13 5 6 19 24 31 40 30 40 32 33 2 -13z m104 34 c-3 -3 -12 -4 -19 -1
-8 3 -5 6 6 6 11 1 17 -2 13 -5z m-477 -8 c0 -2 -13 -6 -29 -8 -17 -2 -28 -1
-25 4 5 8 54 12 54 4z m295 -15 c-4 -13 0 -23 12 -30 10 -6 14 -10 8 -11 -23
0 -37 18 -30 39 3 11 9 21 11 21 3 0 3 -9 -1 -19z m434 -36 c17 -20 31 -43 31
-53 -1 -10 -6 -4 -14 14 -8 17 -31 45 -52 63 -22 18 -29 28 -18 22 12 -5 35
-26 53 -46z m-692 39 c-3 -3 -12 -4 -19 -1 -8 3 -5 6 6 6 11 1 17 -2 13 -5z
m377 -8 c-11 -8 -30 -37 -44 -65 -13 -28 -25 -49 -27 -47 -6 5 35 87 55 109 8
9 20 17 26 17 6 0 1 -6 -10 -14z m200 -24 c56 -30 79 -61 73 -94 -4 -22 -4
-22 -6 3 -2 36 -34 67 -105 101 -34 16 -50 26 -36 22 14 -3 47 -18 74 -32z
m-778 -13 c-9 -19 -15 -29 -16 -22 0 15 22 64 27 60 2 -2 -3 -19 -11 -38z
m116 32 c11 6 22 8 25 6 2 -3 -4 -8 -14 -11 -11 -4 -29 -30 -42 -62 -13 -30
-25 -53 -28 -50 -3 2 1 14 7 26 11 20 10 21 -9 15 -11 -3 -29 -1 -38 5 -15 9
-14 9 8 5 22 -6 28 -1 44 36 11 23 21 36 23 30 3 -8 9 -8 24 0z m148 -7 c23
-9 39 -18 37 -20 -2 -3 -24 4 -48 15 -54 24 -45 27 11 5z m367 10 c-3 -3 -12
-4 -19 -1 -8 3 -5 6 6 6 11 1 17 -2 13 -5z m-980 -26 c-3 -8 -6 -5 -6 6 -1 11
2 17 5 13 3 -3 4 -12 1 -19z m548 12 c13 -5 14 -9 5 -9 -8 0 -24 4 -35 9 -13
5 -14 9 -5 9 8 0 24 -4 35 -9z m485 0 c18 -12 2 -12 -25 0 -13 6 -15 9 -5 9 8
0 22 -4 30 -9z m-1063 -22 c-3 -8 -6 -5 -6 6 -1 11 2 17 5 13 3 -3 4 -12 1
-19z m-63 -78 c4 -8 0 -6 -8 4 -9 11 -15 36 -15 55 l2 36 6 -40 c4 -22 10 -47
15 -55z m1190 75 c20 -8 36 -18 36 -20 0 -5 -70 22 -79 30 -8 9 6 5 43 -10z
m-816 -67 c-28 -53 -37 -63 -61 -64 -26 -1 -26 -1 -2 3 20 3 33 19 57 68 18
36 34 63 36 60 2 -2 -11 -32 -30 -67z m347 62 c3 -6 -1 -7 -9 -4 -18 7 -21 14
-7 14 6 0 13 -4 16 -10z m-607 -49 c15 -13 20 -20 12 -16 -29 15 -50 38 -49
54 0 14 1 14 6 1 3 -8 17 -26 31 -39z m712 14 c23 -27 6 -22 -25 9 -20 20 -23
25 -9 18 11 -6 27 -18 34 -27z m-54 9 c18 -14 18 -14 -6 -3 -31 14 -36 19 -24
19 6 0 19 -7 30 -16z m485 -11 c13 -16 12 -17 -3 -4 -10 7 -18 15 -18 17 0 8
8 3 21 -13z m-1176 -23 l20 -25 -22 19 c-13 11 -23 24 -23 29 0 6 1 8 3 6 1
-2 11 -15 22 -29z m323 -5 c-6 -14 -13 -23 -15 -21 -5 5 15 46 22 46 3 0 -1
-11 -7 -25z m411 -8 c0 -12 -4 -31 -8 -42 -6 -14 -8 -6 -7 26 0 26 4 45 9 42
4 -2 7 -14 6 -26z m-355 10 c16 -11 17 -17 7 -33 -11 -18 -12 -18 -6 2 4 15
-1 24 -17 32 -13 6 -18 11 -12 11 5 1 18 -5 28 -12z m453 -109 c-5 -16 -13
-28 -18 -28 -4 0 -6 -6 -3 -13 2 -7 0 -24 -6 -38 -9 -22 -10 -22 -5 7 6 29 3
31 -36 43 -22 7 -39 14 -36 17 2 2 16 0 31 -6 15 -5 31 -10 35 -10 11 0 31 70
32 116 2 37 2 37 9 -11 4 -27 3 -62 -3 -77z m-718 76 c14 -12 -19 -1 -35 12
-18 14 -18 14 6 3 14 -6 27 -13 29 -15z m1068 4 c-3 -8 -6 -5 -6 6 -1 11 2 17
5 13 3 -3 4 -12 1 -19z m100 -15 c-3 -10 -5 -4 -5 12 0 17 2 24 5 18 2 -7 2
-21 0 -30z m-1191 -11 c-5 -4 -66 26 -66 33 0 3 16 -3 35 -12 19 -9 33 -18 31
-21z m765 11 c-12 -20 -14 -14 -5 12 4 9 9 14 11 11 3 -2 0 -13 -6 -23z m-911
7 c0 -5 -2 -10 -4 -10 -3 0 -8 5 -11 10 -3 6 -1 10 4 10 6 0 11 -4 11 -10z
m456 -27 c-8 -15 -15 -25 -16 -21 0 12 23 58 27 54 3 -2 -2 -17 -11 -33z m349
-13 c-9 -41 -17 -33 -9 9 4 17 9 30 11 27 3 -2 2 -19 -2 -36z m452 18 c-3 -8
-6 -5 -6 6 -1 11 2 17 5 13 3 -3 4 -12 1 -19z m-1177 -34 c0 -7 -58 25 -65 36
-3 5 10 1 29 -11 20 -12 36 -23 36 -25z m157 40 c-3 -3 -12 -4 -19 -1 -8 3 -5
6 6 6 11 1 17 -2 13 -5z m987 -28 c-3 -15 -8 -25 -11 -23 -2 3 -1 17 3 31 3
15 8 25 11 23 2 -3 1 -17 -3 -31z m-889 4 c-10 -11 -22 -20 -28 -20 -5 0 1 9
14 20 31 25 37 25 14 0z m79 -17 c-29 -45 -56 -73 -73 -72 -10 0 -8 4 7 9 12
5 34 30 49 54 15 25 29 43 31 41 2 -2 -4 -16 -14 -32z m-194 17 c18 -12 2 -12
-25 0 -13 6 -15 9 -5 9 8 0 22 -4 30 -9z m1107 -12 c-3 -8 -6 -5 -6 6 -1 11 2
17 5 13 3 -3 4 -12 1 -19z m-560 -10 c-3 -8 -6 -5 -6 6 -1 11 2 17 5 13 3 -3
4 -12 1 -19z m-500 6 c-3 -3 -12 -4 -19 -1 -8 3 -5 6 6 6 11 1 17 -2 13 -5z
m-147 -14 c8 -5 11 -10 5 -10 -5 0 -17 5 -25 10 -8 5 -10 10 -5 10 6 0 17 -5
25 -10z m311 -17 c-12 -20 -14 -14 -5 12 4 9 9 14 11 11 3 -2 0 -13 -6 -23z
m879 -20 c-11 -17 -11 -17 -6 0 3 10 6 24 7 30 0 9 2 9 5 0 3 -7 0 -20 -6 -30z
m-1090 0 c30 -11 31 -12 6 -8 -16 4 -43 13 -60 20 -23 11 -25 13 -6 8 14 -3
41 -12 60 -20z m189 -52 c-7 -23 -14 -39 -16 -37 -3 2 1 23 8 45 7 23 14 39
16 37 3 -2 -1 -23 -8 -45z m-116 32 c-7 -2 -19 -2 -25 0 -7 3 -2 5 12 5 14 0
19 -2 13 -5z m918 -30 c-12 -20 -14 -14 -5 12 4 9 9 14 11 11 3 -2 0 -13 -6
-23z m-894 2 c-9 -8 -18 -29 -22 -46 -4 -17 -9 -28 -12 -26 -9 10 21 87 34 87
12 0 12 -2 0 -15z m407 -34 c-9 -23 -18 -40 -20 -38 -2 2 4 22 13 45 9 23 18
40 20 38 2 -2 -4 -22 -13 -45z m74 33 c12 -8 22 -23 21 -32 0 -13 -2 -12 -9 4
-10 26 -41 39 -52 22 -4 -8 -8 -8 -8 -2 0 26 18 30 48 8z m373 -31 c-12 -20
-14 -14 -5 12 4 9 9 14 11 11 3 -2 0 -13 -6 -23z m-432 -32 c-6 -18 -13 -30
-15 -28 -2 2 1 18 7 36 6 18 13 30 15 28 2 -2 -1 -18 -7 -36z m108 17 c-3 -8
-6 -5 -6 6 -1 11 2 17 5 13 3 -3 4 -12 1 -19z m337 -27 c-9 -23 -18 -40 -20
-38 -2 2 4 22 13 45 9 23 18 40 20 38 2 -2 -4 -22 -13 -45z m70 -30 c-15 -34
-28 -60 -30 -58 -2 2 8 31 23 65 14 34 28 60 30 58 2 -2 -8 -31 -23 -65z
m-867 27 c-3 -8 -6 -5 -6 6 -1 11 2 17 5 13 3 -3 4 -12 1 -19z m749 -37 c-15
-28 -28 -51 -31 -51 -3 0 7 25 22 55 15 30 29 53 31 51 2 -2 -8 -27 -22 -55z
m-779 27 c-3 -8 -6 -5 -6 6 -1 11 2 17 5 13 3 -3 4 -12 1 -19z m-80 -50 c-2
-13 -4 -5 -4 17 -1 22 1 32 4 23 2 -10 2 -28 0 -40z m404 5 c-11 -21 -20 -35
-21 -31 0 12 33 78 38 74 2 -2 -6 -21 -17 -43z m150 23 c10 -13 32 -29 49 -36
17 -7 29 -15 26 -17 -7 -8 -60 24 -85 51 -14 14 -21 26 -17 26 5 0 16 -11 27
-24z m128 -42 c31 -13 49 -24 40 -24 -22 0 -134 57 -151 77 -8 11 1 8 21 -7
19 -13 59 -34 90 -46z m-248 19 c-12 -20 -14 -14 -5 12 4 9 9 14 11 11 3 -2 0
-13 -6 -23z m-280 -54 c27 -12 48 -24 46 -26 -14 -13 -127 59 -127 81 0 6 7 0
16 -12 8 -12 37 -32 65 -43z m-11 35 c0 -2 -9 0 -20 6 -11 6 -20 13 -20 16 0
2 9 0 20 -6 11 -6 20 -13 20 -16z m713 -22 c-23 -29 -38 -37 -64 -38 l-34 -2
33 5 c24 3 40 14 60 43 15 21 29 36 31 34 3 -2 -9 -21 -26 -42z m-301 -17 c35
-19 59 -35 54 -35 -5 0 -33 13 -62 29 -28 17 -55 27 -58 24 -3 -4 -6 -1 -6 5
0 17 2 16 72 -23z m-450 -45 c6 0 9 -3 5 -6 -8 -8 -68 29 -93 57 -10 12 3 6
29 -14 27 -21 53 -37 59 -37z m568 60 c8 -5 11 -10 5 -10 -5 0 -17 5 -25 10
-8 5 -10 10 -5 10 6 0 17 -5 25 -10z m-410 -26 c31 -9 37 -13 20 -13 -14 0
-43 8 -65 19 -22 11 -31 17 -20 14 11 -4 40 -13 65 -20z m110 6 c-6 -11 -13
-20 -16 -20 -2 0 0 9 6 20 6 11 13 20 16 20 2 0 0 -9 -6 -20z m40 11 c0 -5 -9
-19 -20 -32 l-20 -24 17 32 c19 34 23 39 23 24z m393 2 c-13 -2 -33 -2 -45 0
-13 2 -3 4 22 4 25 0 35 -2 23 -4z m-338 -42 c-21 -43 -29 -39 -8 4 9 19 18
33 21 31 2 -2 -4 -18 -13 -35z m282 23 c-3 -3 -12 -4 -19 -1 -8 3 -5 6 6 6 11
1 17 -2 13 -5z m174 -12 c-5 -10 -18 -25 -27 -33 -11 -9 -9 -2 6 19 26 35 36
42 21 14z m-608 -29 c-7 -2 -21 -2 -30 0 -10 3 -4 5 12 5 17 0 24 -2 18 -5z
m44 1 c-3 -3 -12 -4 -19 -1 -8 3 -5 6 6 6 11 1 17 -2 13 -5z m328 -4 c13 -6
15 -9 5 -9 -8 0 -22 4 -30 9 -18 12 -2 12 25 0z m-510 -21 c22 -10 29 -16 15
-13 -28 7 -80 33 -65 33 6 0 28 -9 50 -20z m685 1 c-8 -5 -24 -9 -35 -9 -16 1
-16 2 5 9 35 11 48 11 30 0z m-443 -25 c-23 -20 -38 -25 -80 -24 l-52 2 57 6
c34 4 64 13 75 24 9 9 20 17 23 17 3 0 -8 -12 -23 -25z m366 18 c-7 -2 -21 -2
-30 0 -10 3 -4 5 12 5 17 0 24 -2 18 -5z m-506 -29 c-3 -3 -12 -4 -19 -1 -8 3
-5 6 6 6 11 1 17 -2 13 -5z"/>
</g>
</svg>
