<svg width="56" height="51" viewBox="0 0 56 51" fill="none" xmlns="http://www.w3.org/2000/svg">
<path d="M34.2617 42.741L34.2619 42.7409C34.2957 42.7214 34.3355 42.7104 34.3775 42.7104H40.3495C48.1352 42.7104 54.5 36.4538 54.5 28.7206V15.49C54.5 7.75652 48.1352 1.50017 40.3495 1.50017L15.6505 1.5C7.86461 1.5 1.5 7.75637 1.5 15.4898V28.7204C1.5 36.4537 7.8646 42.7102 15.6505 42.7102H20.9438C21.0115 42.7102 21.0713 42.7388 21.1099 42.7811L21.1101 42.7814C21.1482 42.8231 21.1632 42.8743 21.1582 42.9219C21.1582 42.9219 21.1582 42.922 21.1582 42.922L20.636 47.8417C20.5765 48.4026 20.8367 48.9495 21.3095 49.2572C21.7822 49.5649 22.3877 49.5813 22.8764 49.2998L34.2617 42.741Z" stroke="white" stroke-width="3" stroke-linejoin="round"/>
<path d="M27.1791 16.586C27.5991 16.3744 27.9961 16.1183 28.2953 15.6828C29.0171 14.6303 28.7828 9.42544 27.6314 8.85641C27.3473 8.71582 26.9839 8.65784 26.5791 8.66181L27.1791 16.586Z" fill="white"/>
<path d="M29.7722 25.9182C29.1931 26.0658 28.6065 26.1615 27.9537 25.897C27.0664 25.5375 26.1421 24.049 25.4965 22.3682C24.904 20.6685 24.6485 18.938 25.0957 18.0958C25.4249 17.4759 25.9358 17.1747 26.4751 16.918L25.8546 8.72998C24.4229 8.97494 22.7276 9.83992 21.862 10.9426C18.6118 15.0872 20.336 20.2882 21.6483 23.7598C22.8893 27.2579 24.9329 32.3426 30.1043 33.4416C31.4802 33.7339 33.3385 33.3139 34.5938 32.5868L29.7722 25.9182Z" fill="white"/>
<path d="M31.9653 25.7027C31.455 25.5599 30.9852 25.6171 30.5264 25.7232L35.193 32.1767C35.5054 31.9215 35.7464 31.6442 35.8732 31.3551C36.3867 30.1843 33.1988 26.0476 31.9653 25.7027Z" fill="white"/>
</svg>
