<svg width="33" height="33" viewBox="0 0 33 33" fill="none" xmlns="http://www.w3.org/2000/svg">
<path d="M4.58203 27.793C4.19531 27.3711 4.19531 26.9668 4.58203 26.5801L15.2871 15.875L4.58203 5.16992C4.19531 4.7832 4.19531 4.39648 4.58203 4.00977C5.00391 3.58789 5.4082 3.57031 5.79492 3.95703L16.5 14.6621L27.2051 3.95703C27.5918 3.57031 27.9785 3.58789 28.3652 4.00977C28.7871 4.39648 28.8047 4.7832 28.418 5.16992L17.7129 15.875L28.418 26.5801C28.5938 26.7559 28.6816 26.9492 28.6816 27.1602C28.6816 27.4062 28.5938 27.6172 28.418 27.793C28.2422 27.9688 28.0312 28.0566 27.7852 28.0566C27.5742 28.0566 27.3809 27.9688 27.2051 27.793L16.5 17.0879L5.79492 27.793C5.61914 27.9688 5.4082 28.0566 5.16211 28.0566C4.95117 28.0566 4.75781 27.9688 4.58203 27.793Z" fill="white"/>
</svg>
