<svg width="25" height="14" viewBox="0 0 25 14" fill="none" xmlns="http://www.w3.org/2000/svg">
<path d="M24.3652 0.599609C24.541 0.775391 24.6289 0.986328 24.6289 1.23242C24.6289 1.47852 24.541 1.67187 24.3652 1.8125L13.0801 13.0977C12.9043 13.2734 12.6934 13.3613 12.4473 13.3613C12.2363 13.3613 12.043 13.2734 11.8672 13.0977L0.582031 1.8125C0.195312 1.42578 0.195312 1.03906 0.582031 0.652344C1.00391 0.230469 1.4082 0.212891 1.79492 0.599609L12.5 11.3047L23.1523 0.599609C23.5742 0.212891 23.9785 0.212891 24.3652 0.599609Z" fill="black"/>
<path d="M24.3652 0.599609C24.541 0.775391 24.6289 0.986328 24.6289 1.23242C24.6289 1.47852 24.541 1.67187 24.3652 1.8125L13.0801 13.0977C12.9043 13.2734 12.6934 13.3613 12.4473 13.3613C12.2363 13.3613 12.043 13.2734 11.8672 13.0977L0.582031 1.8125C0.195312 1.42578 0.195312 1.03906 0.582031 0.652344C1.00391 0.230469 1.4082 0.212891 1.79492 0.599609L12.5 11.3047L23.1523 0.599609C23.5742 0.212891 23.9785 0.212891 24.3652 0.599609Z" fill="white"/>
</svg>
