<svg width="57" height="62" viewBox="0 0 57 62" fill="none" xmlns="http://www.w3.org/2000/svg">
<path d="M35.1489 42.9663L35.1491 42.9662C35.1829 42.9468 35.2228 42.9357 35.2647 42.9357H41.2367C49.0224 42.9357 55.3872 36.6792 55.3872 28.9459V15.7153C55.3872 7.98187 49.0224 1.72551 41.2367 1.72551L16.5377 1.72534C8.75182 1.72534 2.38721 7.98171 2.38721 15.7152V28.9457C2.38721 36.679 8.7518 42.9355 16.5377 42.9355H21.831C21.8987 42.9355 21.9585 42.9641 21.9971 43.0065L21.9973 43.0067C22.0354 43.0485 22.0504 43.0996 22.0454 43.1472C22.0454 43.1473 22.0454 43.1473 22.0454 43.1474L21.5233 48.067C21.4637 48.628 21.7239 49.1749 22.1967 49.4825C22.6694 49.7902 23.2749 49.8067 23.7636 49.5251L35.1489 42.9663Z" stroke="white" stroke-width="3" stroke-linejoin="round"/>
<path d="M19.2747 22.7253L4.77467 37.2253M38.2747 22.7253L52.7747 37.2253" stroke="white" stroke-width="3"/>
<path d="M54 9.22534L32.3101 30.9152C30.3575 32.8678 27.1917 32.8678 25.2391 30.9152L3.54921 9.22534" stroke="white" stroke-width="3"/>
</svg>
