<svg width="75" height="75" viewBox="0 0 75 75" fill="none" xmlns="http://www.w3.org/2000/svg">
<g clip-path="url(#clip0)">
<path d="M43.9785 27.2777V21.5723C43.9785 20.7836 44.6173 20.1467 45.3949 20.1467C46.1725 20.1467 46.8114 20.7836 46.8114 21.5723V27.2777C46.8114 28.0648 46.1725 28.7033 45.3949 28.7033C44.6173 28.7033 43.9785 28.0648 43.9785 27.2777Z" fill="white"/>
<path d="M43.9785 53.4894V47.7824C43.9785 46.9953 44.6173 46.3568 45.3949 46.3568C46.1725 46.3568 46.8114 46.9953 46.8114 47.7824V53.4894C46.8114 54.2748 46.1725 54.9149 45.3949 54.9149C44.6173 54.9149 43.9785 54.2748 43.9785 53.4894Z" fill="white"/>
<path d="M55.5033 36.095H61.1285C61.9061 36.095 62.5341 36.743 62.5341 37.5316C62.5341 38.3202 61.9061 38.9682 61.1285 38.9682H55.5033C54.7272 38.9682 54.0977 38.3202 54.0977 37.5316C54.0977 36.743 54.7272 36.095 55.5033 36.095Z" fill="white"/>
<path d="M29.6598 36.095H35.2866C36.0626 36.095 36.6921 36.743 36.6921 37.5316C36.6921 38.3202 36.0626 38.9682 35.2866 38.9682H29.6598C28.8853 38.9682 28.2542 38.3202 28.2542 37.5316C28.2542 36.743 28.8853 36.095 29.6598 36.095Z" fill="white"/>
<path d="M45.8888 41.1619C45.4292 41.1619 45.0006 40.9059 44.7373 40.525L37.8592 30.5476C37.4135 29.9028 37.5662 29.0051 38.2051 28.5531C38.8409 28.1027 39.7213 28.256 40.1638 28.9024L45.8592 37.1539L54.5402 23.9446C54.9703 23.2887 55.8445 23.1117 56.4912 23.5479C57.1378 23.9856 57.3124 24.8707 56.8807 25.5266L47.0575 40.5013C46.7989 40.8932 46.3688 41.1651 45.9029 41.1651C45.8997 41.1619 45.8951 41.1619 45.8888 41.1619Z" fill="white"/>
<path d="M45.5429 67.5C37.1081 67.5 28.5081 63.5078 22.4045 56.3563H15.9611C15.1353 56.3563 14.4621 55.6625 14.4621 54.8232C14.4621 53.984 15.1353 53.2902 15.9611 53.2902H23.087C23.5233 53.2902 23.944 53.5099 24.2276 53.8465C29.7921 60.486 37.7626 64.4592 45.5413 64.4592C60.1328 64.4592 72.0035 52.2772 72.0035 37.2961C72.0035 22.5395 60.1328 10.5345 45.5413 10.5345C37.881 10.5345 30.4575 14.1394 25.1766 20.3996C24.893 20.7378 24.4785 20.948 24.0406 20.948H15.9611C15.1353 20.948 14.4621 20.2558 14.4621 19.415C14.4621 18.5742 15.1353 17.8835 15.9611 17.8835H23.3581C29.1766 11.4132 37.2234 7.5 45.5413 7.5C61.7861 7.5 75 20.8642 75 37.2977C75.0016 53.9556 61.7876 67.5 45.5429 67.5Z" fill="white"/>
<path d="M18.992 31.2098H7.91129C7.09945 31.2098 6.44031 30.5002 6.44031 29.6278C6.44031 28.7554 7.101 28.049 7.91129 28.049H18.992C19.8054 28.049 20.463 28.7554 20.463 29.6278C20.463 30.5002 19.807 31.2098 18.992 31.2098Z" fill="white"/>
<path d="M18.992 47.0143H7.91129C7.09945 47.0143 6.44031 46.3078 6.44031 45.4354C6.44031 44.563 7.101 43.8534 7.91129 43.8534H18.992C19.8054 43.8534 20.463 44.563 20.463 45.4354C20.463 46.3078 19.807 47.0143 18.992 47.0143Z" fill="white"/>
<path d="M14.2767 39.1121H1.30269C0.582784 39.1121 0 38.404 0 37.5316C0 36.6592 0.582784 35.9512 1.30269 35.9512H14.2767C14.9981 35.9512 15.5825 36.6592 15.5825 37.5316C15.5825 38.404 14.9981 39.1121 14.2767 39.1121Z" fill="white"/>
<path d="M45.3949 13.825C32.4848 13.825 22.0212 24.4376 22.0212 37.5316C22.0212 50.6256 32.4848 61.2383 45.3949 61.2383C58.305 61.2383 68.7686 50.6256 68.7686 37.5316C68.7686 24.4376 58.3065 13.825 45.3949 13.825ZM45.3949 58.0774C34.2051 58.0774 25.1377 48.8808 25.1377 37.5316C25.1377 26.1824 34.2051 16.9858 45.3949 16.9858C56.5847 16.9858 65.6521 26.1824 65.6521 37.5316C65.6521 48.8808 56.5847 58.0774 45.3949 58.0774Z" fill="white"/>
</g>
<defs>
<clipPath id="clip0">
<rect width="75" height="75" fill="white"/>
</clipPath>
</defs>
</svg>
