<svg width="100" height="80" viewBox="0 0 100 80" fill="none" xmlns="http://www.w3.org/2000/svg">
<path d="M58.6377 26.3703V18.7631C58.6377 17.7115 59.4895 16.8623 60.5263 16.8623C61.563 16.8623 62.4149 17.7115 62.4149 18.7631V26.3703C62.4149 27.4197 61.563 28.271 60.5263 28.271C59.4895 28.271 58.6377 27.4197 58.6377 26.3703Z" fill="white"/>
<path d="M58.6377 61.3191V53.7098C58.6377 52.6604 59.4895 51.8091 60.5263 51.8091C61.563 51.8091 62.4149 52.6604 62.4149 53.7098V61.3191C62.4149 62.3664 61.563 63.2199 60.5263 63.2199C59.4895 63.2199 58.6377 62.3664 58.6377 61.3191Z" fill="white"/>
<path d="M74.0044 38.1267H81.5048C82.5415 38.1267 83.3788 38.9907 83.3788 40.0422C83.3788 41.0937 82.5415 41.9577 81.5048 41.9577H74.0044C72.9697 41.9577 72.1304 41.0937 72.1304 40.0422C72.1304 38.9907 72.9697 38.1267 74.0044 38.1267Z" fill="white"/>
<path d="M39.5464 38.1267H47.0489C48.0835 38.1267 48.9229 38.9907 48.9229 40.0422C48.9229 41.0937 48.0835 41.9577 47.0489 41.9577H39.5464C38.5138 41.9577 37.6724 41.0937 37.6724 40.0422C37.6724 38.9907 38.5138 38.1267 39.5464 38.1267Z" fill="white"/>
<path d="M61.1852 44.8824C60.5723 44.8824 60.0009 44.541 59.6498 44.0332L50.479 30.73C49.8848 29.8703 50.0884 28.6734 50.9402 28.0707C51.7879 27.4701 52.9618 27.6745 53.5519 28.5364L61.1457 39.5384L72.7204 21.9259C73.2938 21.0514 74.4594 20.8154 75.3216 21.397C76.1838 21.9807 76.4165 23.1608 75.841 24.0353L62.7434 44.0016C62.3986 44.5242 61.8251 44.8866 61.2039 44.8866C61.1997 44.8824 61.1935 44.8824 61.1852 44.8824Z" fill="white"/>
<path d="M60.7238 80C49.4774 80 38.0108 74.6771 29.8726 65.1417H21.2814C20.1803 65.1417 19.2827 64.2166 19.2827 63.0977C19.2827 61.9787 20.1803 61.0536 21.2814 61.0536H30.7826C31.3643 61.0536 31.9253 61.3465 32.3034 61.7954C39.7228 70.648 50.35 75.9456 60.7217 75.9456C80.1769 75.9456 96.0046 59.7029 96.0046 39.7282C96.0046 20.0527 80.1769 4.04594 60.7217 4.04594C50.5079 4.04594 40.6099 8.8526 33.5687 17.1995C33.1906 17.6504 32.6379 17.9307 32.0541 17.9307H21.2814C20.1803 17.9307 19.2827 17.0077 19.2827 15.8866C19.2827 14.7656 20.1803 13.8447 21.2814 13.8447H31.1441C38.9021 5.21757 49.6311 0 60.7217 0C82.3813 0 99.9999 17.819 99.9999 39.7303C100.002 61.9408 82.3834 80 60.7238 80Z" fill="white"/>
<path d="M25.3225 31.6132H10.5482C9.46577 31.6132 8.58691 30.667 8.58691 29.5038C8.58691 28.3406 9.46784 27.3987 10.5482 27.3987H25.3225C26.407 27.3987 27.2838 28.3406 27.2838 29.5038C27.2838 30.667 26.4091 31.6132 25.3225 31.6132Z" fill="white"/>
<path d="M25.3225 52.6857H10.5482C9.46577 52.6857 8.58691 51.7438 8.58691 50.5806C8.58691 49.4174 9.46784 48.4712 10.5482 48.4712H25.3225C26.407 48.4712 27.2838 49.4174 27.2838 50.5806C27.2838 51.7438 26.4091 52.6857 25.3225 52.6857Z" fill="white"/>
<path d="M19.0355 42.1493H1.73693C0.777046 42.1493 0 41.2053 0 40.0421C0 38.8789 0.777046 37.9348 1.73693 37.9348H19.0355C19.9975 37.9348 20.7766 38.8789 20.7766 40.0421C20.7766 41.2053 19.9975 42.1493 19.0355 42.1493Z" fill="white"/>
<path d="M60.5265 8.43335C43.3131 8.43335 29.3616 22.5836 29.3616 40.0422C29.3616 57.5009 43.3131 71.6511 60.5265 71.6511C77.74 71.6511 91.6915 57.5009 91.6915 40.0422C91.6915 22.5836 77.742 8.43335 60.5265 8.43335ZM60.5265 67.4366C45.6068 67.4366 33.5169 55.1745 33.5169 40.0422C33.5169 24.91 45.6068 12.6479 60.5265 12.6479C75.4462 12.6479 87.5361 24.91 87.5361 40.0422C87.5361 55.1745 75.4462 67.4366 60.5265 67.4366Z" fill="white"/>
</svg>
