<svg width="90" height="56" viewBox="0 0 90 56" fill="none" xmlns="http://www.w3.org/2000/svg">
<path fill-rule="evenodd" clip-rule="evenodd" d="M3.21028 41.2774H10.8182C14.0007 41.2774 16.0356 40.9503 16.9256 40.2948C17.8288 39.6417 18.2798 38.1368 18.281 35.7837C18.281 33.0248 17.9751 31.2848 17.3633 30.5602C16.766 29.8223 15.3343 29.4515 13.0696 29.4515L11.8387 29.4297H3.20907V41.2774H3.21028ZM0 55.231V26.718H11.9439H13.0273C16.2376 26.718 18.4261 27.3384 19.5941 28.5779C20.7622 29.8163 21.345 32.1354 21.345 35.5341C21.345 38.7923 20.7331 41.0121 19.5107 42.1959C18.3016 43.3821 16.0223 43.9734 12.673 43.9734L11.4228 43.9928H3.21028V55.231H0Z" fill="white"/>
<path fill-rule="evenodd" clip-rule="evenodd" d="M36.3299 46.7699L30.0133 29.3498L23.7802 46.7699H36.3299ZM37.2682 49.1933H22.8637L20.6751 55.2298H17.2774L27.7002 26.7168H32.2031L42.8338 55.2298H39.4785L37.2682 49.1933Z" fill="white"/>
<path fill-rule="evenodd" clip-rule="evenodd" d="M62.249 45.7061H65.4387V46.7917C65.4387 50.6776 64.7773 53.1082 63.4582 54.0836C62.1366 55.0444 58.8163 55.5243 53.4936 55.5243C48.7284 55.5243 45.6983 54.6749 44.4057 52.9749C43.1131 51.2616 42.4662 47.2449 42.4662 40.9224C42.4662 35.9788 42.6126 32.8733 42.904 31.6059C43.1954 30.3252 44.0297 29.1838 45.4045 28.1805C47.0162 27.0088 50.4974 26.4248 55.8478 26.4248C59.4752 26.4248 61.9141 26.9906 63.1655 28.1163C64.4291 29.2456 65.0603 31.4254 65.0615 34.6557L65.0832 35.4275H61.8935L61.8718 34.5515C61.8718 32.2541 61.4957 30.7771 60.746 30.124C60.0097 29.4673 58.335 29.1414 55.7221 29.1414C51.137 29.1414 48.3366 29.5255 47.3222 30.29C46.3077 31.057 45.8011 33.1799 45.8011 36.661C45.8011 44.6689 46.1408 49.3617 46.8228 50.7394C47.5023 52.1195 49.8299 52.8077 53.8044 52.8077C57.5841 52.8077 59.9396 52.5096 60.8718 51.9111C61.8161 51.3125 62.2889 49.8076 62.2889 47.3976L62.249 45.7061Z" fill="white"/>
<path fill-rule="evenodd" clip-rule="evenodd" d="M90 47.3006C90 44.9197 89.6457 43.2912 88.936 42.414C88.2419 41.5355 86.8163 40.9515 84.6641 40.6607V40.5141C86.5818 40.2778 87.8598 39.6974 88.4995 38.779C89.1379 37.8605 89.4583 36.1545 89.4583 33.6621C89.4583 32.9787 89.3604 32.408 89.2044 31.91C89.208 31.7828 89.2044 31.6762 89.1875 31.6059C88.8961 30.3252 88.0618 29.1838 86.687 28.1805C85.0752 27.0088 81.5941 26.4248 76.2436 26.4248C72.6162 26.4248 70.1773 26.9906 68.9259 28.1163C67.6623 29.2456 67.0312 31.4254 67.0299 34.6557L67.0082 35.4275H70.1979L70.2197 34.5515C70.2197 32.2541 70.5945 30.7771 71.3454 30.124C72.0817 29.4673 73.7564 29.1414 76.3681 29.1414C80.9544 29.1414 83.7548 29.5255 84.7693 30.29C85.7402 31.0231 86.242 33.0139 86.2831 36.232C86.1066 37.4377 85.716 38.2228 85.1006 38.5706C84.2529 39.0577 81.9108 39.3024 78.0754 39.3024L76.9921 39.2806V42.0166H78.2012H80.9109C83.4259 42.019 85.0595 42.3389 85.8091 42.9774C86.56 43.6051 86.936 44.9706 86.936 47.0716C86.936 47.3891 86.93 47.6896 86.9167 47.9768C86.7232 50.0499 86.2505 51.3743 85.4947 51.9438C84.4815 52.7108 81.6811 53.0936 77.0948 53.0936C74.4831 53.0912 72.8084 52.7653 72.0721 52.111C71.3212 51.4555 70.9451 49.9809 70.9451 47.6835L70.9246 45.7424H67.7349L67.7566 47.5769C67.7566 50.8096 68.3878 52.9894 69.6526 54.1151C70.9028 55.2444 73.3429 55.8066 76.9691 55.8066C82.3208 55.8066 86.1961 55.2225 87.8078 54.0533C89.1185 53.0973 89.2733 52.403 89.5369 51.2301C89.8428 50.165 90 48.8613 90 47.3006Z" fill="white"/>
<path fill-rule="evenodd" clip-rule="evenodd" d="M61.8222 12.9475L63.4037 13.5872L63.1861 14.1252C62.4086 16.0506 61.5973 17.1229 60.7472 17.3398C59.9008 17.5518 58.1585 17.1229 55.5213 16.0542C53.1587 15.0982 51.8262 14.0695 51.5263 12.9681C51.2277 11.8606 51.7089 9.73897 52.9737 6.6056C53.9603 4.1556 54.6544 2.64465 55.0522 2.07638C55.4524 1.49962 56.0933 1.10099 56.9759 0.880462C58.0085 0.6248 59.8513 1.03313 62.5029 2.10667C64.2997 2.83488 65.3964 3.60308 65.7918 4.41369C66.192 5.2255 66.0699 6.43233 65.4242 8.03416L65.2803 8.42068L63.7 7.78092L63.8644 7.34229C64.3239 6.20453 64.4327 5.39756 64.1921 4.92259C63.9587 4.44883 63.1933 3.95204 61.8996 3.42739C59.6264 2.50652 58.1621 2.13575 57.5055 2.31144C56.8502 2.48835 56.1743 3.43951 55.4778 5.16371C53.8781 9.13193 53.1091 11.5262 53.172 12.3465C53.2336 13.1668 54.2493 13.975 56.2202 14.7722C58.0932 15.532 59.3192 15.8567 59.9021 15.7452C60.4897 15.6386 61.0241 14.9879 61.5054 13.7944L61.8222 12.9475Z" fill="white"/>
<path fill-rule="evenodd" clip-rule="evenodd" d="M73.598 11.1154C74.3743 9.18881 75.1263 8.39032 75.9752 8.17101C76.8216 7.96018 78.5639 8.38911 81.2011 9.45659C83.5637 10.4138 84.8962 11.4425 85.1973 12.5439C85.4947 13.6526 85.0135 15.773 83.7499 18.9064C82.7621 21.3564 82.0692 22.8661 81.6702 23.4368C81.27 24.0124 80.6291 24.4122 79.7465 24.6315C78.7139 24.8896 76.8711 24.4801 74.2195 23.4053C72.4227 22.6783 71.326 21.9101 70.9318 21.0983C70.5304 20.2865 71.5122 19.1972 72.5303 20.5918C72.7649 21.0632 73.5291 21.5624 74.8228 22.0846C77.096 23.0055 78.5615 23.3762 79.2169 23.2018C79.8734 23.0249 80.5493 22.0749 81.2446 20.3495C82.8443 16.3813 83.6133 13.9858 83.5504 13.1655C83.4888 12.3452 82.4731 11.537 80.5022 10.7397C78.6292 9.98124 77.4032 9.65651 76.8204 9.76556C76.2339 9.8734 75.6983 10.5241 75.217 11.7176L73.598 11.1154Z" fill="white"/>
<path fill-rule="evenodd" clip-rule="evenodd" d="M71.1749 17.8293C69.713 21.8509 69.129 23.0977 68.5341 23.6659C67.9417 24.2342 66.6455 24.153 64.6492 23.4248C62.7508 22.7342 61.6215 22.1514 61.2624 21.6812C60.8972 21.205 60.9347 20.3654 61.3748 19.1537L61.7037 18.3128L60.1016 17.7288L59.9033 18.274C59.1947 20.226 59.0835 21.5685 59.5683 22.3004C60.0568 23.025 61.6372 23.8743 64.3106 24.8497C66.7047 25.7234 68.3818 25.8506 69.3406 25.2351C70.3031 24.6098 71.268 22.1562 72.4215 18.9804C72.7178 18.1662 71.1749 17.8293 71.1749 17.8293Z" fill="white"/>
<path fill-rule="evenodd" clip-rule="evenodd" d="M73.471 16.8855C73.8991 15.6084 74.1252 14.7445 74.1832 14.2816C74.2691 13.5837 74.0587 12.8579 73.5521 12.1018C72.956 11.2185 71.3139 10.2867 68.626 9.3065C66.805 8.6413 65.4774 8.47772 64.6431 8.81699C63.8016 9.1502 63.0869 10.1304 62.4981 11.7529L62.3457 12.137L63.9479 12.721L64.1183 12.2848C64.5379 11.1313 64.9962 10.4576 65.4919 10.2661C65.9816 10.0735 66.8824 10.2153 68.1944 10.6939C70.4978 11.5336 71.8351 12.2387 72.2039 12.8107C72.5751 13.3813 72.4409 14.5409 71.8061 16.2893L73.471 16.8855Z" fill="white"/>
<path fill-rule="evenodd" clip-rule="evenodd" d="M57.1489 3.43833C57.3048 3.03121 57.7595 2.83008 58.1645 2.98517C58.1645 2.98517 59.3241 3.1754 60.8633 3.81032C62.914 4.65243 63.1474 4.90324 63.1474 4.90324C63.5525 5.05955 63.7544 5.51393 63.5996 5.92105C63.5996 5.92105 63.255 7.84275 62.1378 10.5569C61.0205 13.271 60.3797 14.3264 60.3797 14.3264C60.2249 14.7311 59.7703 14.9347 59.3652 14.7784C59.3652 14.7784 58.1319 14.7868 56.6773 14.1677C55.2227 13.5473 54.3823 12.8615 54.3823 12.8615C53.9773 12.7052 53.7741 12.2496 53.9301 11.8437C53.9301 11.8437 54.4065 9.71963 55.404 7.20541C56.4028 4.68999 57.1489 3.43833 57.1489 3.43833Z" fill="white"/>
<path fill-rule="evenodd" clip-rule="evenodd" d="M65.2211 11.3324C65.3758 10.9253 65.8305 10.7229 66.2355 10.8792C66.2355 10.8792 67.3963 11.0695 68.9356 11.7032C70.9851 12.5465 71.2184 12.7973 71.2184 12.7973C71.6235 12.9536 71.8254 13.408 71.6706 13.8151C71.6706 13.8151 71.1326 16.3414 70.0153 19.0544C68.8981 21.7697 68.2572 22.8251 68.2572 22.8251C68.1025 23.2298 67.6478 23.4333 67.2428 23.277C67.2428 23.277 66.0094 23.2843 64.5548 22.6663C63.1002 22.046 62.2599 21.3602 62.2599 21.3602C61.8536 21.2039 61.6517 20.7471 61.8077 20.3424C61.8077 20.3424 62.2829 18.2195 63.2816 15.7041C64.2804 13.1887 65.2211 11.3324 65.2211 11.3324Z" fill="white"/>
<path fill-rule="evenodd" clip-rule="evenodd" d="M76.3355 11.0731C76.4903 10.6672 76.9449 10.4649 77.35 10.6212C77.35 10.6212 78.5107 10.8114 80.0488 11.4451C82.0995 12.2872 82.3328 12.538 82.3328 12.538C82.7379 12.6943 82.941 13.1499 82.7851 13.5558C82.7851 13.5558 82.4417 15.4788 81.3232 18.1929C80.206 20.907 79.5663 21.9624 79.5663 21.9624C79.4103 22.3671 78.9557 22.5707 78.5506 22.4144C78.5506 22.4144 77.3173 22.424 75.8639 21.8037C74.4081 21.1833 73.5678 20.4963 73.5678 20.4963C73.1627 20.34 72.9608 19.8856 73.1156 19.4785C73.1156 19.4785 73.592 17.3556 74.5907 14.8402C75.5895 12.326 76.3355 11.0731 76.3355 11.0731Z" fill="white"/>
</svg>
