<svg width="68" height="68" viewBox="0 0 68 68" fill="none" xmlns="http://www.w3.org/2000/svg">
<path d="M24.9208 51.7937C23.6014 51.082 22.0796 50.927 20.6361 51.355C17.6661 52.2462 15.9709 55.3863 16.8607 58.356C17.2902 59.7949 18.2567 60.9806 19.5791 61.6955C20.4105 62.1434 21.3218 62.3704 22.2407 62.3704C22.7822 62.3704 23.3268 62.2922 23.8607 62.1326C25.3012 61.7031 26.4855 60.7367 27.2004 59.416C27.9122 58.0937 28.0672 56.572 27.6376 55.1332C27.2081 53.6943 26.2431 52.507 24.9208 51.7937ZM24.7244 58.0768C24.37 58.7395 23.7763 59.2212 23.0553 59.439C22.3404 59.6538 21.5764 59.5771 20.9153 59.2181C20.2541 58.8638 19.7708 58.2716 19.5561 57.5492C19.1112 56.0643 19.9595 54.495 21.4415 54.0502C21.7099 53.9689 21.9814 53.929 22.2514 53.929C22.7117 53.929 23.1673 54.044 23.583 54.2695C24.2458 54.6254 24.7275 55.2191 24.9422 55.9385C25.1601 56.6564 25.0818 57.4172 24.7244 58.0768Z" fill="white"/>
<path d="M67.4917 44.0088C67.5116 43.8263 67.4963 43.6392 67.441 43.4505L65.8256 38.0617C65.6017 37.3192 64.8239 36.8943 64.0752 37.1183C63.3312 37.3422 62.9093 38.1261 63.1318 38.8716L64.3422 42.9136L32.6173 52.3873C31.6278 50.022 29.8774 48.0784 27.5901 46.8451C25.361 45.6425 22.8544 45.2437 20.3983 45.6594L9.4894 9.19098C9.43417 9.00538 9.34212 8.83971 9.22553 8.70012C8.8773 8.27368 8.29588 8.07733 7.73747 8.24606L1.00283 10.2632C0.258802 10.4872 -0.163071 11.271 0.0593713 12.0135C0.241928 12.6209 0.800335 13.0152 1.4063 13.0152C1.53976 13.0152 1.67476 12.9952 1.80976 12.9569L7.19901 11.3431L17.706 46.4632C12.5975 48.7166 9.82996 54.4843 11.473 59.9682C12.3336 62.8474 14.265 65.2189 16.9098 66.6455C18.5727 67.5444 20.3952 68 22.2346 68C23.3192 68 24.4068 67.8405 25.4746 67.5229C28.3525 66.6609 30.7242 64.7327 32.1524 62.0866C33.3214 59.9222 33.728 57.4862 33.3674 55.0963L66.4945 45.2023C67.0176 45.0458 67.3643 44.6102 67.4594 44.1101C67.4671 44.0763 67.487 44.0441 67.4917 44.0088ZM29.6749 60.749C28.6041 62.7339 26.8261 64.1804 24.6676 64.8262C22.5046 65.4736 20.2249 65.2389 18.2429 64.1682C16.2609 63.0975 14.8127 61.3211 14.1653 59.1598C12.8322 54.7052 15.3742 49.9913 19.8307 48.6583C20.6299 48.4205 21.4476 48.3009 22.2607 48.3009C23.6398 48.3009 25.0067 48.6445 26.2554 49.3164C28.239 50.3855 29.6856 52.1649 30.333 54.3247C30.9789 56.4861 30.7442 58.7656 29.6749 60.749Z" fill="white"/>
<path d="M18.2306 28.591L22.2606 42.0622C22.4831 42.8047 23.2655 43.2311 24.011 43.0056C24.7551 42.7817 25.1769 41.9994 24.9545 41.2554L21.3279 29.1325L50.9665 20.2646L56.6088 39.1247L33.7065 45.9769C32.9624 46.2009 32.539 46.9832 32.7615 47.7272C32.944 48.3361 33.5024 48.7304 34.1084 48.7304C34.2419 48.7304 34.3784 48.712 34.5119 48.6721L58.7627 41.418C59.5067 41.1956 59.9301 40.4117 59.7077 39.6677L53.2584 18.1125C53.151 17.7551 52.9071 17.4544 52.5788 17.2765C52.249 17.1001 51.867 17.0617 51.508 17.1676L42.078 19.9901L36.5016 1.50123C36.2791 0.75879 35.4952 0.336951 34.7527 0.559376L28.058 2.56887H28.0564L23.9021 3.81444L13.1957 7.02502C12.8368 7.13087 12.5376 7.37783 12.3612 7.7061C12.1832 8.0359 12.1449 8.42093 12.2538 8.77681L18.2306 28.591ZM29.2545 11.475L26.9918 10.2555C26.3106 9.88433 25.4561 10.142 25.0864 10.8246L23.8668 13.0888L22.1272 7.2812L22.1487 7.27506L27.5149 5.66593L29.2545 11.475ZM19.4333 8.08959L22.1425 17.1446C22.3051 17.6907 22.7822 18.0834 23.3483 18.1416C23.3959 18.1462 23.4434 18.1493 23.491 18.1493C24.0049 18.1493 24.482 17.8671 24.729 17.4099L26.8951 13.3971L30.9098 15.5615C31.4099 15.8376 32.0251 15.7747 32.4654 15.4158C32.9072 15.0568 33.0867 14.4663 32.9241 13.9202L30.2118 4.85754L34.2173 3.65644L39.381 20.7831L20.5195 26.4373L15.3527 9.31216L19.4333 8.08959Z" fill="white"/>
<path d="M43.2761 38.7105C43.4587 39.3195 44.0171 39.7137 44.6231 39.7137C44.7565 39.7137 44.8931 39.6938 45.0265 39.6554L51.7627 37.6428C52.5068 37.4189 52.9302 36.635 52.7077 35.8911C52.4853 35.1486 51.6937 34.7222 50.9589 34.9461L44.2227 36.9618C43.4771 37.1827 43.0537 37.9696 43.2761 38.7105Z" fill="white"/>
<path d="M49.3449 29.5574L42.6072 31.573C41.8631 31.7954 41.4397 32.5778 41.6622 33.3217C41.8447 33.9307 42.4031 34.3249 43.0091 34.3249C43.1426 34.3249 43.2791 34.305 43.411 34.2667L50.1487 32.2526C50.8943 32.0301 51.3162 31.2478 51.0937 30.5023C50.8713 29.7583 50.0828 29.338 49.3449 29.5574Z" fill="white"/>
</svg>
