<svg width="88" height="54" viewBox="0 0 88 54" fill="none" xmlns="http://www.w3.org/2000/svg">
<path fill-rule="evenodd" clip-rule="evenodd" d="M3.13894 39.735H10.5778C13.6895 39.735 15.6793 39.4138 16.5494 38.7702C17.4326 38.129 17.8736 36.6515 17.8748 34.3412C17.8748 31.6324 17.5756 29.9241 16.9774 29.2127C16.3934 28.4882 14.9936 28.1242 12.7792 28.1242L11.5756 28.1027H3.13776V39.735H3.13894ZM0 53.4349V25.4403H11.6785H12.7378C15.8767 25.4403 18.0166 26.0494 19.1587 27.2664C20.3008 28.4822 20.8706 30.7592 20.8706 34.0961C20.8706 37.2951 20.2724 39.4745 19.0771 40.6368C17.8949 41.8014 15.6663 42.382 12.3914 42.382L11.1689 42.401H3.13894V53.4349H0Z" fill="white"/>
<path fill-rule="evenodd" clip-rule="evenodd" d="M35.5225 45.1277L29.3463 28.0242L23.2517 45.1277H35.5225ZM36.44 47.507H22.3556L20.2157 53.4337H16.8935L27.0847 25.4391H31.4874L41.882 53.4337H38.6012L36.44 47.507Z" fill="white"/>
<path fill-rule="evenodd" clip-rule="evenodd" d="M60.8657 44.0832H63.9845V45.1491C63.9845 48.9643 63.3378 51.3507 62.048 52.3083C60.7558 53.2517 57.5092 53.7228 52.3049 53.7228C47.6455 53.7228 44.6828 52.8889 43.4189 51.2198C42.1551 49.5377 41.5226 45.594 41.5226 39.3865C41.5226 34.5327 41.6656 31.4837 41.9505 30.2393C42.2355 28.9819 43.0512 27.8613 44.3955 26.8762C45.9714 25.7258 49.3752 25.1524 54.6068 25.1524C58.1536 25.1524 60.5382 25.708 61.7619 26.8132C62.9973 27.9219 63.6145 30.0621 63.6157 33.2337L63.6369 33.9915H60.5181L60.4968 33.1314C60.4968 30.8758 60.1291 29.4256 59.3961 28.7844C58.6761 28.1396 57.0387 27.8196 54.4838 27.8196C50.0006 27.8196 47.2625 28.1967 46.2706 28.9474C45.2786 29.7004 44.7833 31.7847 44.7833 35.2025C44.7833 43.0648 45.1155 47.6723 45.7823 49.0249C46.4467 50.3799 48.7226 51.0556 52.6087 51.0556C56.3045 51.0556 58.6076 50.763 59.5191 50.1753C60.4424 49.5876 60.9047 48.1101 60.9047 45.7439L60.8657 44.0832Z" fill="white"/>
<path fill-rule="evenodd" clip-rule="evenodd" d="M88 45.6487C88 43.3111 87.6536 41.7122 86.9596 40.8509C86.281 39.9884 84.8871 39.415 82.7826 39.1295V38.9856C84.6577 38.7536 85.9074 38.1838 86.5328 37.282C87.157 36.3803 87.4703 34.7052 87.4703 32.2582C87.4703 31.5872 87.3746 31.0269 87.2221 30.5379C87.2256 30.413 87.2221 30.3083 87.2055 30.2393C86.9206 28.9819 86.1048 27.8613 84.7606 26.8762C83.1846 25.7258 79.7809 25.1524 74.5493 25.1524C71.0025 25.1524 68.6178 25.708 67.3942 26.8132C66.1587 27.9219 65.5416 30.0621 65.5404 33.2337L65.5191 33.9915H68.6379L68.6592 33.1314C68.6592 30.8758 69.0257 29.4256 69.7599 28.7844C70.4799 28.1396 72.1174 27.8196 74.6711 27.8196C79.1554 27.8196 81.8936 28.1967 82.8855 28.9474C83.8349 29.6671 84.3255 31.6217 84.3657 34.7814C84.1931 35.9651 83.8112 36.736 83.2094 37.0774C82.3807 37.5556 80.0906 37.7959 76.3404 37.7959L75.2811 37.7745V40.4607H76.4634H79.1129C81.572 40.4631 83.1693 40.7772 83.9023 41.4041C84.6365 42.0203 85.0041 43.3611 85.0041 45.4239C85.0041 45.7356 84.9982 46.0306 84.9852 46.3125C84.7961 48.348 84.3338 49.6483 83.5949 50.2074C82.6041 50.9605 79.866 51.3364 75.3816 51.3364C72.8279 51.334 71.1905 51.014 70.4705 50.3716C69.7363 49.728 69.3686 48.2802 69.3686 46.0247L69.3485 44.1189H66.2297L66.2509 45.92C66.2509 49.0939 66.8681 51.2341 68.1047 52.3393C69.3272 53.448 71.713 54 75.2587 54C80.4914 54 84.2806 53.4266 85.8566 52.2786C87.1381 51.34 87.2895 50.6583 87.5472 49.5067C87.8463 48.461 88 47.181 88 45.6487Z" fill="white"/>
<path fill-rule="evenodd" clip-rule="evenodd" d="M60.4484 11.9201L61.9948 12.5482L61.782 13.0764C61.0218 14.9668 60.2285 16.0196 59.3973 16.2325C58.5697 16.4407 56.8661 16.0196 54.2875 14.9703C51.9774 14.0317 50.6745 13.0217 50.3813 11.9403C50.0893 10.853 50.5598 8.76993 51.7965 5.69352C52.7612 3.28807 53.4398 1.80459 53.8288 1.24665C54.2201 0.680384 54.8468 0.288993 55.7098 0.0724789C56.7195 -0.178535 58.5213 0.22237 61.114 1.27639C62.8708 1.99136 63.9432 2.74559 64.3298 3.54146C64.7211 4.33852 64.6017 5.5234 63.9703 7.09611L63.8297 7.4756L62.2844 6.84747L62.4452 6.41682C62.8945 5.29975 63.0009 4.50745 62.7656 4.04111C62.5374 3.57596 61.7891 3.08821 60.524 2.5731C58.3014 1.66897 56.8696 1.30494 56.2277 1.47744C55.5869 1.65113 54.926 2.585 54.245 4.27785C52.6808 8.17392 51.9289 10.5246 51.9904 11.33C52.0507 12.1354 53.0438 12.9289 54.9709 13.7117C56.8022 14.4576 58.0011 14.7764 58.5709 14.667C59.1455 14.5623 59.6681 13.9234 60.1386 12.7516L60.4484 11.9201Z" fill="white"/>
<path fill-rule="evenodd" clip-rule="evenodd" d="M71.9625 10.1214C72.7215 8.22983 73.4569 7.44586 74.2868 7.23053C75.1144 7.02354 76.8181 7.44467 79.3966 8.49274C81.7068 9.43256 83.0096 10.4426 83.304 11.5239C83.5949 12.6125 83.1243 14.6943 81.8888 17.7707C80.9229 20.1762 80.2455 21.6585 79.8553 22.2188C79.464 22.7839 78.8374 23.1765 77.9743 23.3918C76.9647 23.6452 75.1629 23.2431 72.5702 22.1879C70.8133 21.4741 69.741 20.7198 69.3556 19.9228C68.9631 19.1257 69.9231 18.0562 70.9185 19.4255C71.1479 19.8883 71.8951 20.3784 73.1601 20.8912C75.3828 21.7953 76.8157 22.1593 77.4565 21.988C78.0985 21.8143 78.7594 20.8816 79.4392 19.1876C81.0033 15.2915 81.7552 12.9396 81.6938 12.1342C81.6335 11.3288 80.6404 10.5353 78.7133 9.75257C76.8819 9.00785 75.6831 8.68903 75.1132 8.7961C74.5398 8.90197 74.0161 9.54081 73.5455 10.7126L71.9625 10.1214Z" fill="white"/>
<path fill-rule="evenodd" clip-rule="evenodd" d="M69.5932 16.7131C68.1639 20.6616 67.5928 21.8857 67.0112 22.4436C66.4318 23.0016 65.1645 22.9219 63.2125 22.2069C61.3564 21.5288 60.2521 20.9566 59.901 20.495C59.5439 20.0275 59.5806 19.2031 60.0109 18.0134L60.3325 17.1878L58.766 16.6144L58.5721 17.1497C57.8793 19.0662 57.7705 20.3844 58.2446 21.1029C58.7222 21.8143 60.2675 22.6483 62.8815 23.6059C65.2224 24.4636 66.8622 24.5886 67.7997 23.9842C68.7408 23.3704 69.6843 20.9613 70.8122 17.8433C71.1018 17.0439 69.5932 16.7131 69.5932 16.7131Z" fill="white"/>
<path fill-rule="evenodd" clip-rule="evenodd" d="M71.8384 15.7864C72.2569 14.5325 72.478 13.6843 72.5347 13.2299C72.6187 12.5447 72.4129 11.8321 71.9176 11.0897C71.3347 10.2225 69.7292 9.30765 67.101 8.34523C65.3205 7.69212 64.0224 7.53152 63.2066 7.86462C62.3837 8.19177 61.685 9.15419 61.1092 10.7471L60.9603 11.1242L62.5268 11.6976L62.6935 11.2694C63.1037 10.1368 63.5518 9.47539 64.0365 9.28742C64.5154 9.09827 65.3962 9.23746 66.6789 9.70737C68.9311 10.5318 70.2387 11.2242 70.5993 11.7857C70.9623 12.346 70.8311 13.4845 70.2104 15.2011L71.8384 15.7864Z" fill="white"/>
<path fill-rule="evenodd" clip-rule="evenodd" d="M55.8789 2.58381C56.0314 2.18409 56.4759 1.98661 56.872 2.13888C56.872 2.13888 58.0058 2.32566 59.5108 2.94903C61.5159 3.77583 61.7441 4.02208 61.7441 4.02208C62.1402 4.17555 62.3376 4.62166 62.1863 5.02138C62.1863 5.02138 61.8493 6.90814 60.7569 9.57293C59.6645 12.2377 59.0379 13.2739 59.0379 13.2739C58.8866 13.6712 58.442 13.8711 58.046 13.7176C58.046 13.7176 56.8401 13.726 55.4178 13.1181C53.9955 12.509 53.1738 11.8356 53.1738 11.8356C52.7778 11.6822 52.5792 11.2349 52.7317 10.8363C52.7317 10.8363 53.1975 8.7509 54.1729 6.28239C55.1494 3.8127 55.8789 2.58381 55.8789 2.58381Z" fill="white"/>
<path fill-rule="evenodd" clip-rule="evenodd" d="M63.7717 10.3343C63.923 9.93458 64.3676 9.73591 64.7636 9.88938C64.7636 9.88938 65.8986 10.0762 67.4037 10.6983C69.4076 11.5263 69.6358 11.7726 69.6358 11.7726C70.0318 11.926 70.2293 12.3721 70.078 12.7719C70.078 12.7719 69.5518 15.2523 68.4594 17.9159C67.367 20.5819 66.7404 21.618 66.7404 21.618C66.5891 22.0154 66.1445 22.2152 65.7485 22.0618C65.7485 22.0618 64.5426 22.0689 63.1203 21.4622C61.698 20.8531 60.8763 20.1798 60.8763 20.1798C60.4791 20.0263 60.2817 19.5778 60.4342 19.1805C60.4342 19.1805 60.8988 17.0962 61.8754 14.6265C62.8519 12.1568 63.7717 10.3343 63.7717 10.3343Z" fill="white"/>
<path fill-rule="evenodd" clip-rule="evenodd" d="M74.6392 10.0797C74.7905 9.68119 75.235 9.48252 75.6311 9.63598C75.6311 9.63598 76.7661 9.82276 78.2699 10.4449C80.2751 11.2717 80.5032 11.518 80.5032 11.518C80.8993 11.6715 81.0979 12.1188 80.9454 12.5173C80.9454 12.5173 80.6096 14.4052 79.516 17.07C78.4236 19.7348 77.7982 20.771 77.7982 20.771C77.6457 21.1683 77.2011 21.3682 76.8051 21.2147C76.8051 21.2147 75.5992 21.2243 74.1781 20.6152C72.7546 20.0061 71.9329 19.3315 71.9329 19.3315C71.5369 19.1781 71.3394 18.732 71.4908 18.3322C71.4908 18.3322 71.9566 16.248 72.9332 13.7783C73.9097 11.3098 74.6392 10.0797 74.6392 10.0797Z" fill="white"/>
</svg>
