<svg width="82" height="66" viewBox="0 0 82 66" fill="none" xmlns="http://www.w3.org/2000/svg">
<path fill-rule="evenodd" clip-rule="evenodd" d="M55.75 47.8066H50.3654V38.0009C50.3654 35.311 49.2252 33.8105 47.1804 33.8105C44.9552 33.8105 43.6346 35.374 43.6346 38.0009V47.8066H38.25V29.5934H43.6346V31.6417C43.6346 31.6417 45.324 28.5566 49.131 28.5566C52.9392 28.5566 55.75 30.9748 55.75 35.9792C55.75 40.9823 55.75 47.8066 55.75 47.8066ZM30.3755 25.0566C28.9251 25.0566 27.75 23.881 27.75 22.4311C27.75 20.9823 28.9251 19.8066 30.3755 19.8066C31.8249 19.8066 33 20.9823 33 22.4311C33.0011 23.881 31.8249 25.0566 30.3755 25.0566ZM27.75 47.8066H33V30.3066H27.75V47.8066Z" fill="#828282"/>
</svg>
