<svg width="75" height="75" viewBox="0 0 75 75" fill="none" xmlns="http://www.w3.org/2000/svg">
<path d="M68.8125 36.561H40.8276L46.381 31.0045C47.0391 30.3449 47.0391 29.2787 46.381 28.619C45.7214 27.9594 44.6521 27.9594 43.9924 28.619L35.5549 37.0565C35.5166 37.0933 35.4828 37.1332 35.443 37.1792C35.4276 37.1992 35.4169 37.2176 35.4 37.2375C35.3801 37.2621 35.3632 37.2866 35.3463 37.3112C35.334 37.3357 35.3172 37.3603 35.3034 37.3817C35.2911 37.4063 35.2742 37.4278 35.265 37.4523C35.2466 37.4769 35.2374 37.5029 35.2266 37.5259C35.2159 37.552 35.2036 37.5735 35.1944 37.6026C35.1791 37.6241 35.1745 37.6502 35.1637 37.6732C35.1607 37.7039 35.1438 37.7284 35.1377 37.7561C35.13 37.7806 35.1223 37.8051 35.1147 37.8312C35.1085 37.8604 35.1009 37.888 35.0963 37.9171C35.0901 37.9463 35.087 37.9739 35.0824 38.003C35.0748 38.0307 35.0702 38.0537 35.0702 38.0813C35.0702 38.1334 35.064 38.1871 35.064 38.2408C35.064 38.2408 35.0625 38.2439 35.0625 38.247C35.0625 38.247 35.0625 38.25 35.064 38.25C35.064 38.3068 35.0702 38.359 35.0702 38.4126C35.0702 38.4387 35.0748 38.4602 35.0824 38.4894C35.087 38.517 35.0901 38.5461 35.0963 38.5768C35.1009 38.6044 35.1085 38.6305 35.1147 38.6581C35.1223 38.6857 35.13 38.7103 35.1377 38.7348C35.1438 38.7624 35.1607 38.7885 35.1637 38.8176C35.1745 38.8437 35.1791 38.8683 35.1944 38.8913C35.2052 38.9189 35.2174 38.9419 35.2266 38.9665C35.2389 38.991 35.2481 39.0186 35.265 39.0416C35.2757 39.0662 35.2926 39.0892 35.3034 39.1107C35.3156 39.1367 35.3356 39.1582 35.3463 39.1858C35.3632 39.2073 35.3801 39.2334 35.4 39.2564C35.4169 39.2779 35.4291 39.2963 35.443 39.3178C35.4828 39.3607 35.5166 39.4021 35.5549 39.442L43.9924 47.8795C44.3238 48.2094 44.7595 48.372 45.186 48.372C45.6124 48.372 46.0481 48.2094 46.3795 47.8795C47.0376 47.2199 47.0376 46.1537 46.3795 45.494L40.8261 39.9329H68.8125C69.7391 39.9329 70.5 39.1812 70.5 38.2485C70.5 37.3158 69.7406 36.561 68.8125 36.561Z" fill="white"/>
<path d="M58.2303 59.7273C52.4928 65.4648 44.8638 68.6235 36.75 68.6235C28.6362 68.6235 21.0072 65.4648 15.2697 59.7273C9.53523 53.9898 6.37347 46.3623 6.37347 38.25C6.37347 32.106 8.18829 26.2243 11.6231 21.1817C12.1309 21.352 12.6709 21.4471 13.237 21.4471C16.026 21.4471 18.2995 19.1766 18.2995 16.3831C18.2995 15.6912 18.1584 15.0315 17.9068 14.4256C20.4932 12.3806 23.3666 10.779 26.4593 9.66222C29.753 8.47483 33.2155 7.875 36.75 7.875C44.8638 7.875 52.4928 11.0322 58.2303 16.7712C58.5602 17.101 58.9912 17.2652 59.4193 17.2652C59.8519 17.2652 60.2845 17.101 60.6143 16.7712C61.274 16.1115 61.274 15.0438 60.6143 14.3841C54.2402 8.00847 45.7659 4.5 36.75 4.5C32.8289 4.5 28.9752 5.16886 25.3149 6.48665C21.8064 7.7492 18.548 9.57937 15.6286 11.9219C14.923 11.5384 14.1053 11.319 13.237 11.319C10.4465 11.319 8.17602 13.588 8.17602 16.38C8.17602 17.3772 8.46443 18.3037 8.96761 19.0877C5.05875 24.7362 3 31.3466 3 38.25C3 47.2643 6.50847 55.7386 12.8841 62.1158C19.2598 68.49 27.7341 72 36.75 72C45.7659 72 54.2402 68.49 60.6158 62.1158C61.2755 61.4562 61.2755 60.3869 60.6158 59.7273C59.9562 59.0691 58.89 59.0691 58.2303 59.7273ZM13.237 14.6971C14.1682 14.6971 14.926 15.4534 14.926 16.3815C14.926 17.3158 14.1697 18.0736 13.237 18.0736C12.3073 18.0736 11.548 17.3158 11.548 16.3815C11.548 15.4549 12.3058 14.6971 13.237 14.6971Z" fill="white"/>
<path d="M54.6482 22.7388C55.3079 22.0791 55.3079 21.0099 54.6482 20.3502C49.868 15.57 43.5092 12.9375 36.75 12.9375C29.9908 12.9375 23.632 15.57 18.8548 20.3502C14.0715 25.132 11.4375 31.4877 11.4375 38.25C11.4375 44.417 13.6803 50.3555 17.7534 54.9777C17.5002 55.576 17.3606 56.2341 17.3606 56.9245C17.3606 59.7165 19.6295 61.987 22.4231 61.987C23.5875 61.987 24.6552 61.5912 25.5128 60.9315C28.9798 62.6543 32.8519 63.5625 36.75 63.5625C43.5107 63.5625 49.868 60.9285 54.6482 56.1482C55.3079 55.4886 55.3079 54.4193 54.6482 53.7597C53.9886 53.1 52.9209 53.1 52.2627 53.7597C48.1191 57.9048 42.6102 60.186 36.75 60.186C33.4977 60.186 30.27 59.4603 27.3537 58.0766C27.4427 57.7069 27.4902 57.3218 27.4902 56.926C27.4902 54.1355 25.2167 51.8635 22.4231 51.8635C21.561 51.8635 20.7494 52.0798 20.0407 52.4603C16.6641 48.4993 14.811 43.4705 14.811 38.2515C14.811 26.1537 24.6552 16.314 36.75 16.314C42.6102 16.314 48.1191 18.5922 52.2627 22.7388C52.9209 23.3954 53.9886 23.3954 54.6482 22.7388ZM22.4231 55.237C23.3559 55.237 24.1122 55.9933 24.1122 56.9245C24.1122 57.8557 23.3574 58.6135 22.4231 58.6135C21.4919 58.6135 20.7356 57.8557 20.7356 56.9245C20.7356 55.9933 21.4919 55.237 22.4231 55.237Z" fill="white"/>
<path d="M32.3027 25.4986C33.1848 26.9928 34.8094 27.9976 36.6656 27.9976C39.4577 27.9976 41.7297 25.7256 41.7297 22.9367C41.7297 20.1431 39.4592 17.8711 36.6656 17.8711C34.1405 17.8711 32.0388 19.7365 31.663 22.1604C31.6185 22.1696 31.577 22.1788 31.5341 22.1957C28.1729 23.288 25.2781 25.3759 23.1687 28.2323C21.0133 31.1502 19.875 34.6126 19.875 38.25C19.875 47.5542 27.4473 55.125 36.75 55.125C37.6797 55.125 38.4375 54.3702 38.4375 53.4359C38.4375 52.5017 37.6812 51.7469 36.75 51.7469C29.3066 51.7469 23.2485 45.6918 23.2485 38.2484C23.2485 32.4756 26.8735 27.3886 32.3027 25.4986ZM36.6641 21.2476C37.5968 21.2476 38.3516 22.0055 38.3516 22.9382C38.3516 23.8663 37.5984 24.6211 36.6641 24.6211C35.7329 24.6211 34.9781 23.8663 34.9781 22.9382C34.9797 22.0039 35.7329 21.2476 36.6641 21.2476Z" fill="white"/>
</svg>
