<svg width="100" height="100" viewBox="0 0 100 100" fill="none" xmlns="http://www.w3.org/2000/svg">
<path d="M91.75 48.748H54.4368L61.8414 41.3393C62.7189 40.4598 62.7189 39.0382 61.8414 38.1587C60.9618 37.2791 59.5361 37.2791 58.6566 38.1587L47.4066 49.4086C47.3555 49.4577 47.3105 49.5109 47.2573 49.5723C47.2368 49.5989 47.2225 49.6234 47.2 49.65C47.1734 49.6827 47.1509 49.7155 47.1284 49.7482C47.112 49.7809 47.0895 49.8136 47.0711 49.8423C47.0548 49.875 47.0323 49.9036 47.02 49.9364C46.9955 49.9691 46.9832 50.0039 46.9689 50.0346C46.9545 50.0693 46.9382 50.098 46.9259 50.1368C46.9055 50.1655 46.8993 50.2002 46.885 50.2309C46.8809 50.2718 46.8584 50.3046 46.8502 50.3414C46.84 50.3741 46.8298 50.4068 46.8195 50.4416C46.8114 50.4805 46.8011 50.5173 46.795 50.5562C46.7868 50.595 46.7827 50.6318 46.7766 50.6707C46.7664 50.7075 46.7602 50.7382 46.7602 50.775C46.7602 50.8446 46.752 50.9161 46.752 50.9877C46.752 50.9877 46.75 50.9918 46.75 50.9959C46.75 50.9959 46.75 51 46.752 51C46.752 51.0757 46.7602 51.1452 46.7602 51.2168C46.7602 51.2516 46.7664 51.2802 46.7766 51.3191C46.7827 51.3559 46.7868 51.3948 46.795 51.4357C46.8011 51.4725 46.8114 51.5073 46.8195 51.5441C46.8298 51.5809 46.84 51.6136 46.8502 51.6464C46.8584 51.6832 46.8809 51.718 46.885 51.7568C46.8993 51.7916 46.9055 51.8243 46.9259 51.855C46.9402 51.8918 46.9566 51.9225 46.9689 51.9552C46.9852 51.988 46.9975 52.0248 47.02 52.0555C47.0343 52.0882 47.0568 52.1189 47.0711 52.1475C47.0875 52.1823 47.1141 52.2109 47.1284 52.2477C47.1509 52.2764 47.1734 52.3111 47.2 52.3418C47.2225 52.3705 47.2389 52.395 47.2573 52.4236C47.3105 52.4809 47.3555 52.5361 47.4066 52.5893L58.6566 63.8393C59.0984 64.2791 59.6793 64.4959 60.248 64.4959C60.8166 64.4959 61.3975 64.2791 61.8393 63.8393C62.7168 62.9598 62.7168 61.5382 61.8393 60.6586L54.4348 53.2439H91.75C92.9855 53.2439 94 52.2416 94 50.998C94 49.7543 92.9875 48.748 91.75 48.748Z" fill="white"/>
<path d="M77.6404 79.6364C69.9904 87.2864 59.8184 91.498 49 91.498C38.1816 91.498 28.0095 87.2864 20.3595 79.6364C12.7136 71.9864 8.49795 61.8164 8.49795 51C8.49795 42.808 10.9177 34.9657 15.4975 28.2423C16.1745 28.4693 16.8945 28.5961 17.6493 28.5961C21.368 28.5961 24.3993 25.5689 24.3993 21.8441C24.3993 20.9216 24.2111 20.042 23.8757 19.2341C27.3243 16.5075 31.1555 14.372 35.2791 12.883C39.6707 11.2998 44.2873 10.5 49 10.5C59.8184 10.5 69.9904 14.7095 77.6404 22.3616C78.0802 22.8014 78.655 23.0202 79.2257 23.0202C79.8025 23.0202 80.3793 22.8014 80.8191 22.3616C81.6986 21.482 81.6986 20.0584 80.8191 19.1789C72.3202 10.678 61.0211 6 49 6C43.7718 6 38.6336 6.89182 33.7532 8.64886C29.0752 10.3323 24.7307 12.7725 20.8382 15.8959C19.8973 15.3845 18.807 15.092 17.6493 15.092C13.9286 15.092 10.9014 18.1173 10.9014 21.84C10.9014 23.1695 11.2859 24.405 11.9568 25.4502C6.745 32.9816 4 41.7955 4 51C4 63.0191 8.67795 74.3182 17.1789 82.8211C25.6798 91.32 36.9789 96 49 96C61.0211 96 72.3202 91.32 80.8211 82.8211C81.7007 81.9416 81.7007 80.5159 80.8211 79.6364C79.9416 78.7589 78.52 78.7589 77.6404 79.6364ZM17.6493 19.5961C18.8909 19.5961 19.9014 20.6045 19.9014 21.842C19.9014 23.0877 18.893 24.0982 17.6493 24.0982C16.4098 24.0982 15.3973 23.0877 15.3973 21.842C15.3973 20.6066 16.4077 19.5961 17.6493 19.5961Z" fill="white"/>
<path d="M72.8643 30.3184C73.7439 29.4389 73.7439 28.0132 72.8643 27.1336C66.4907 20.76 58.0123 17.25 49 17.25C39.9877 17.25 31.5093 20.76 25.1398 27.1336C18.762 33.5093 15.25 41.9836 15.25 51C15.25 59.2227 18.2405 67.1407 23.6711 73.3036C23.3336 74.1014 23.1475 74.9789 23.1475 75.8993C23.1475 79.622 26.1727 82.6493 29.8975 82.6493C31.45 82.6493 32.8736 82.1216 34.017 81.242C38.6398 83.5391 43.8025 84.75 49 84.75C58.0143 84.75 66.4907 81.238 72.8643 74.8643C73.7439 73.9848 73.7439 72.5591 72.8643 71.6795C71.9848 70.8 70.5611 70.8 69.6836 71.6795C64.1589 77.2064 56.8136 80.248 49 80.248C44.6636 80.248 40.36 79.2805 36.4716 77.4355C36.5902 76.9425 36.6536 76.4291 36.6536 75.9014C36.6536 72.1807 33.6223 69.1514 29.8975 69.1514C28.748 69.1514 27.6659 69.4398 26.7209 69.947C22.2189 64.6657 19.748 57.9607 19.748 51.002C19.748 34.8716 32.8736 21.752 49 21.752C56.8136 21.752 64.1589 24.7895 69.6836 30.3184C70.5611 31.1939 71.9848 31.1939 72.8643 30.3184ZM29.8975 73.6493C31.1411 73.6493 32.1495 74.6577 32.1495 75.8993C32.1495 77.1409 31.1432 78.1514 29.8975 78.1514C28.6559 78.1514 27.6475 77.1409 27.6475 75.8993C27.6475 74.6577 28.6559 73.6493 29.8975 73.6493Z" fill="white"/>
<path d="M43.0702 33.9982C44.2464 35.9905 46.4125 37.3302 48.8875 37.3302C52.6102 37.3302 55.6395 34.3009 55.6395 30.5823C55.6395 26.8575 52.6123 23.8282 48.8875 23.8282C45.5207 23.8282 42.7184 26.3155 42.2173 29.5473C42.158 29.5595 42.1027 29.5718 42.0455 29.5943C37.5639 31.0507 33.7041 33.8345 30.8916 37.6432C28.0177 41.5336 26.5 46.1502 26.5 51C26.5 63.4057 36.5964 73.5 49 73.5C50.2395 73.5 51.25 72.4936 51.25 71.2479C51.25 70.0023 50.2416 68.9959 49 68.9959C39.0755 68.9959 30.998 60.9225 30.998 50.998C30.998 43.3009 35.8314 36.5182 43.0702 33.9982ZM48.8855 28.3302C50.1291 28.3302 51.1355 29.3407 51.1355 30.5843C51.1355 31.8218 50.1311 32.8282 48.8855 32.8282C47.6439 32.8282 46.6375 31.8218 46.6375 30.5843C46.6395 29.3386 47.6439 28.3302 48.8855 28.3302Z" fill="white"/>
</svg>
