<svg width="75" height="75" viewBox="0 0 75 75" fill="none" xmlns="http://www.w3.org/2000/svg">
<path d="M53.5761 11.5312H46.5652V8.71875C46.5652 7.94109 45.9385 7.3125 45.1631 7.3125H35.9774C34.3775 5.51672 32.1411 4.5 29.7391 4.5C27.3372 4.5 25.1007 5.51672 23.5009 7.3125H14.3152C13.5398 7.3125 12.913 7.94109 12.913 8.71875V11.5312H5.90217C5.12677 11.5312 4.5 12.1598 4.5 12.9375V70.5938C4.5 71.3714 5.12677 72 5.90217 72H53.5761C54.3515 72 54.9783 71.3714 54.9783 70.5938V12.9375C54.9783 12.1598 54.3515 11.5312 53.5761 11.5312ZM15.7174 10.125H24.1613C24.6002 10.125 25.0138 9.91969 25.2802 9.56672C26.3599 8.13375 27.985 7.3125 29.7391 7.3125C31.4933 7.3125 33.1184 8.13375 34.1981 9.56672C34.4631 9.91969 34.8767 10.125 35.317 10.125H43.7609V12.9375V15.75H15.7174V12.9375V10.125ZM52.1739 69.1875H7.30435V14.3438H12.913V17.1562C12.913 17.9339 13.5398 18.5625 14.3152 18.5625H45.1631C45.9385 18.5625 46.5652 17.9339 46.5652 17.1562V14.3438H52.1739V69.1875Z" fill="white"/>
<path d="M45.1631 38.25H28.337C27.5616 38.25 26.9348 38.8786 26.9348 39.6562C26.9348 40.4339 27.5616 41.0625 28.337 41.0625H45.1631C45.9385 41.0625 46.5653 40.4339 46.5653 39.6562C46.5653 38.8786 45.9385 38.25 45.1631 38.25Z" fill="white"/>
<path d="M45.1631 49.5H28.337C27.5616 49.5 26.9348 50.1286 26.9348 50.9062C26.9348 51.6839 27.5616 52.3125 28.337 52.3125H45.1631C45.9385 52.3125 46.5653 51.6839 46.5653 50.9062C46.5653 50.1286 45.9385 49.5 45.1631 49.5Z" fill="white"/>
<path d="M29.7391 12.9375C30.5135 12.9375 31.1413 12.3079 31.1413 11.5313C31.1413 10.7546 30.5135 10.125 29.7391 10.125C28.9647 10.125 28.3369 10.7546 28.3369 11.5313C28.3369 12.3079 28.9647 12.9375 29.7391 12.9375Z" fill="white"/>
<path d="M67.5977 17.1562V15.0469C67.5977 13.1077 66.0259 11.5312 64.0923 11.5312C62.1587 11.5312 60.5869 13.1077 60.5869 15.0469V17.1562C59.8115 17.1562 59.1847 17.7848 59.1847 18.5625V62.1562C59.1847 62.1759 59.1959 62.1914 59.1959 62.2139C59.2029 62.377 59.2282 62.5402 59.2927 62.6977L59.2941 62.7005L59.2969 62.7075L62.7981 71.1352C63.0154 71.6583 63.5272 72 64.0923 72C64.6574 72 65.1692 71.6583 65.3865 71.1352L68.8877 62.7075L68.8905 62.7005L68.8919 62.6977C68.9564 62.5416 68.9817 62.377 68.9887 62.2139C68.9887 62.1914 68.9999 62.1759 68.9999 62.1562V18.5625C68.9999 17.7848 68.3731 17.1562 67.5977 17.1562ZM61.989 49.5H66.1956V60.75H61.989V49.5ZM61.989 19.9688H66.1956V46.6875H61.989V19.9688ZM63.3912 15.0469C63.3912 14.6658 63.7123 14.3438 64.0923 14.3438C64.4723 14.3438 64.7934 14.6658 64.7934 15.0469V17.1562H63.3912V15.0469ZM64.0923 66.9375L62.6901 63.5625H65.4945L64.0923 66.9375Z" fill="white"/>
<path d="M21.737 34.4433L17.1196 39.0741L15.3066 37.2558C14.7583 36.7059 13.8722 36.7059 13.3239 37.2558C12.7757 37.8056 12.7757 38.6944 13.3239 39.2442L16.1283 42.0567C16.4017 42.3309 16.7606 42.4687 17.1196 42.4687C17.4785 42.4687 17.8375 42.3309 18.1109 42.0567L23.7196 36.4317C24.2679 35.8819 24.2679 34.9931 23.7196 34.4433C23.1714 33.8934 22.2852 33.8934 21.737 34.4433Z" fill="white"/>
<path d="M45.1631 27H28.337C27.5616 27 26.9348 27.6286 26.9348 28.4062C26.9348 29.1839 27.5616 29.8125 28.337 29.8125H45.1631C45.9385 29.8125 46.5653 29.1839 46.5653 28.4062C46.5653 27.6286 45.9385 27 45.1631 27Z" fill="white"/>
<path d="M21.737 23.1933L17.1196 27.824L15.3066 26.0058C14.7583 25.4559 13.8722 25.4559 13.3239 26.0058C12.7757 26.5556 12.7757 27.4444 13.3239 27.9942L16.1283 30.8067C16.4017 31.0809 16.7606 31.2187 17.1196 31.2187C17.4785 31.2187 17.8375 31.0809 18.1109 30.8067L23.7196 25.1817C24.2679 24.6319 24.2679 23.7431 23.7196 23.1933C23.1714 22.6434 22.2852 22.6434 21.737 23.1933Z" fill="white"/>
<path d="M21.737 45.6933L17.1196 50.324L15.3066 48.5058C14.7583 47.9559 13.8722 47.9559 13.3239 48.5058C12.7757 49.0556 12.7757 49.9444 13.3239 50.4942L16.1283 53.3067C16.4017 53.5809 16.7606 53.7187 17.1196 53.7187C17.4785 53.7187 17.8375 53.5809 18.1109 53.3067L23.7196 47.6817C24.2679 47.1319 24.2679 46.2431 23.7196 45.6933C23.1714 45.1434 22.2852 45.1434 21.737 45.6933Z" fill="white"/>
<path d="M45.1631 60.75H28.337C27.5616 60.75 26.9348 61.3786 26.9348 62.1563C26.9348 62.9339 27.5616 63.5625 28.337 63.5625H45.1631C45.9385 63.5625 46.5653 62.9339 46.5653 62.1563C46.5653 61.3786 45.9385 60.75 45.1631 60.75Z" fill="white"/>
<path d="M21.737 56.9433L17.1196 61.574L15.3066 59.7558C14.7583 59.2059 13.8722 59.2059 13.3239 59.7558C12.7757 60.3056 12.7757 61.1944 13.3239 61.7442L16.1283 64.5567C16.4017 64.8309 16.7606 64.9687 17.1196 64.9687C17.4785 64.9687 17.8375 64.8309 18.1109 64.5567L23.7196 58.9317C24.2679 58.3819 24.2679 57.4931 23.7196 56.9433C23.1714 56.3934 22.2852 56.3934 21.737 56.9433Z" fill="white"/>
</svg>
