<svg width="100" height="100" viewBox="0 0 100 100" fill="none" xmlns="http://www.w3.org/2000/svg">
<path d="M71.4348 15.375H62.087V11.625C62.087 10.5881 61.2513 9.75 60.2174 9.75H47.9699C45.8367 7.35563 42.8547 6 39.6522 6C36.4496 6 33.4677 7.35563 31.3345 9.75H19.087C18.0531 9.75 17.2174 10.5881 17.2174 11.625V15.375H7.86957C6.8357 15.375 6 16.2131 6 17.25V94.125C6 95.1619 6.8357 96 7.86957 96H71.4348C72.4687 96 73.3044 95.1619 73.3044 94.125V17.25C73.3044 16.2131 72.4687 15.375 71.4348 15.375ZM20.9565 13.5H32.2151C32.8002 13.5 33.3517 13.2263 33.707 12.7556C35.1465 10.845 37.3134 9.75 39.6522 9.75C41.991 9.75 44.1578 10.845 45.5974 12.7556C45.9508 13.2263 46.5023 13.5 47.0893 13.5H58.3478V17.25V21H20.9565V17.25V13.5ZM69.5652 92.25H9.73913V19.125H17.2174V22.875C17.2174 23.9119 18.0531 24.75 19.087 24.75H60.2174C61.2513 24.75 62.087 23.9119 62.087 22.875V19.125H69.5652V92.25Z" fill="white"/>
<path d="M60.2174 51H37.7827C36.7488 51 35.9131 51.8381 35.9131 52.875C35.9131 53.9119 36.7488 54.75 37.7827 54.75H60.2174C61.2513 54.75 62.087 53.9119 62.087 52.875C62.087 51.8381 61.2513 51 60.2174 51Z" fill="white"/>
<path d="M60.2174 66H37.7827C36.7488 66 35.9131 66.8381 35.9131 67.875C35.9131 68.9119 36.7488 69.75 37.7827 69.75H60.2174C61.2513 69.75 62.087 68.9119 62.087 67.875C62.087 66.8381 61.2513 66 60.2174 66Z" fill="white"/>
<path d="M39.6523 17.25C40.6848 17.25 41.5218 16.4105 41.5218 15.375C41.5218 14.3395 40.6848 13.5 39.6523 13.5C38.6197 13.5 37.7827 14.3395 37.7827 15.375C37.7827 16.4105 38.6197 17.25 39.6523 17.25Z" fill="white"/>
<path d="M90.1305 22.875V20.0625C90.1305 17.4769 88.0347 15.375 85.4566 15.375C82.8784 15.375 80.7827 17.4769 80.7827 20.0625V22.875C79.7488 22.875 78.9131 23.7131 78.9131 24.75V82.875C78.9131 82.9013 78.928 82.9219 78.928 82.9519C78.9374 83.1694 78.971 83.3869 79.057 83.5969L79.0589 83.6006L79.0627 83.61L83.731 94.8469C84.0207 95.5444 84.7031 96 85.4566 96C86.21 96 86.8924 95.5444 87.1822 94.8469L91.8505 83.61L91.8542 83.6006L91.8561 83.5969C91.9421 83.3887 91.9757 83.1694 91.9851 82.9519C91.9851 82.9219 92 82.9013 92 82.875V24.75C92 23.7131 91.1644 22.875 90.1305 22.875ZM82.6522 66H88.2609V81H82.6522V66ZM82.6522 26.625H88.2609V62.25H82.6522V26.625ZM84.5218 20.0625C84.5218 19.5544 84.9499 19.125 85.4566 19.125C85.9632 19.125 86.3913 19.5544 86.3913 20.0625V22.875H84.5218V20.0625ZM85.4566 89.25L83.587 84.75H87.3261L85.4566 89.25Z" fill="white"/>
<path d="M28.9824 45.9244L22.826 52.0988L20.4086 49.6744C19.6776 48.9413 18.496 48.9413 17.765 49.6744C17.034 50.4075 17.034 51.5925 17.765 52.3256L21.5042 56.0756C21.8687 56.4413 22.3474 56.625 22.826 56.625C23.3046 56.625 23.7832 56.4413 24.1477 56.0756L31.626 48.5756C32.357 47.8425 32.357 46.6575 31.626 45.9244C30.895 45.1913 29.7134 45.1913 28.9824 45.9244Z" fill="white"/>
<path d="M60.2174 36H37.7827C36.7488 36 35.9131 36.8381 35.9131 37.875C35.9131 38.9119 36.7488 39.75 37.7827 39.75H60.2174C61.2513 39.75 62.087 38.9119 62.087 37.875C62.087 36.8381 61.2513 36 60.2174 36Z" fill="white"/>
<path d="M28.9824 30.9244L22.826 37.0988L20.4086 34.6744C19.6776 33.9413 18.496 33.9413 17.765 34.6744C17.034 35.4075 17.034 36.5925 17.765 37.3256L21.5042 41.0756C21.8687 41.4413 22.3474 41.625 22.826 41.625C23.3046 41.625 23.7832 41.4413 24.1477 41.0756L31.626 33.5756C32.357 32.8425 32.357 31.6575 31.626 30.9244C30.895 30.1913 29.7134 30.1913 28.9824 30.9244Z" fill="white"/>
<path d="M28.9824 60.9244L22.826 67.0988L20.4086 64.6744C19.6776 63.9413 18.496 63.9413 17.765 64.6744C17.034 65.4075 17.034 66.5925 17.765 67.3256L21.5042 71.0756C21.8687 71.4413 22.3474 71.625 22.826 71.625C23.3046 71.625 23.7832 71.4413 24.1477 71.0756L31.626 63.5756C32.357 62.8425 32.357 61.6575 31.626 60.9244C30.895 60.1913 29.7134 60.1913 28.9824 60.9244Z" fill="white"/>
<path d="M60.2174 81H37.7827C36.7488 81 35.9131 81.8381 35.9131 82.875C35.9131 83.9119 36.7488 84.75 37.7827 84.75H60.2174C61.2513 84.75 62.087 83.9119 62.087 82.875C62.087 81.8381 61.2513 81 60.2174 81Z" fill="white"/>
<path d="M28.9824 75.9244L22.826 82.0988L20.4086 79.6744C19.6776 78.9413 18.496 78.9413 17.765 79.6744C17.034 80.4075 17.034 81.5925 17.765 82.3256L21.5042 86.0756C21.8687 86.4413 22.3474 86.625 22.826 86.625C23.3046 86.625 23.7832 86.4413 24.1477 86.0756L31.626 78.5756C32.357 77.8425 32.357 76.6575 31.626 75.9244C30.895 75.1913 29.7134 75.1913 28.9824 75.9244Z" fill="white"/>
</svg>
