<svg width="29" height="28" viewBox="0 0 29 28" fill="none" xmlns="http://www.w3.org/2000/svg">
<path d="M27.7891 26.2637L19.6152 17.9844C21.2324 16.0156 22.041 13.7656 22.041 11.2344C22.041 8.31641 21.0039 5.83789 18.9297 3.79883C16.8906 1.72461 14.4121 0.6875 11.4941 0.6875C8.57617 0.6875 6.08008 1.72461 4.00586 3.79883C1.9668 5.83789 0.947266 8.31641 0.947266 11.2344C0.947266 14.1523 1.9668 16.6484 4.00586 18.7227C6.08008 20.7617 8.57617 21.7812 11.4941 21.7812C14.1309 21.7812 16.4336 20.9199 18.4023 19.1973L26.6289 27.4238C27.0156 27.8105 27.4023 27.8105 27.7891 27.4238C28.2109 27.0371 28.2109 26.6504 27.7891 26.2637ZM17.7695 17.5098C16.0469 19.2324 13.9551 20.0938 11.4941 20.0938C9.06836 20.0938 6.97656 19.2324 5.21875 17.5098C3.49609 15.7871 2.63477 13.6953 2.63477 11.2344C2.63477 8.77344 3.49609 6.68164 5.21875 4.95898C6.97656 3.23633 9.06836 2.375 11.4941 2.375C13.9551 2.375 16.0469 3.23633 17.7695 4.95898C19.5273 6.68164 20.4062 8.77344 20.4062 11.2344C20.4062 13.6953 19.5273 15.7871 17.7695 17.5098Z" fill="black"/>
<path d="M27.7891 26.2637L19.6152 17.9844C21.2324 16.0156 22.041 13.7656 22.041 11.2344C22.041 8.31641 21.0039 5.83789 18.9297 3.79883C16.8906 1.72461 14.4121 0.6875 11.4941 0.6875C8.57617 0.6875 6.08008 1.72461 4.00586 3.79883C1.9668 5.83789 0.947266 8.31641 0.947266 11.2344C0.947266 14.1523 1.9668 16.6484 4.00586 18.7227C6.08008 20.7617 8.57617 21.7812 11.4941 21.7812C14.1309 21.7812 16.4336 20.9199 18.4023 19.1973L26.6289 27.4238C27.0156 27.8105 27.4023 27.8105 27.7891 27.4238C28.2109 27.0371 28.2109 26.6504 27.7891 26.2637ZM17.7695 17.5098C16.0469 19.2324 13.9551 20.0938 11.4941 20.0938C9.06836 20.0938 6.97656 19.2324 5.21875 17.5098C3.49609 15.7871 2.63477 13.6953 2.63477 11.2344C2.63477 8.77344 3.49609 6.68164 5.21875 4.95898C6.97656 3.23633 9.06836 2.375 11.4941 2.375C13.9551 2.375 16.0469 3.23633 17.7695 4.95898C19.5273 6.68164 20.4062 8.77344 20.4062 11.2344C20.4062 13.6953 19.5273 15.7871 17.7695 17.5098Z" fill="white"/>
</svg>
