<svg width="82" height="66" viewBox="0 0 82 66" fill="none" xmlns="http://www.w3.org/2000/svg">
<path fill-rule="evenodd" clip-rule="evenodd" d="M35.064 47.8066C47.1392 47.8066 53.744 37.033 53.744 27.6912C53.744 27.3845 53.744 27.0796 53.7248 26.7763C55.0096 25.777 56.1184 24.5365 57 23.1168C55.8032 23.6888 54.5312 24.0644 53.2304 24.2298C54.6 23.3459 55.6256 21.9572 56.1168 20.3187C54.8272 21.1423 53.4176 21.7229 51.9472 22.0348C49.4608 19.1884 45.3024 19.0506 42.6576 21.7281C40.9536 23.4545 40.2288 26.0286 40.7584 28.4838C35.48 28.1977 30.5616 25.5134 27.2272 21.0975C25.4848 24.328 26.376 28.4596 29.2608 30.5341C28.216 30.5013 27.1936 30.1981 26.28 29.6502V29.7398C26.2816 33.1047 28.4848 36.0027 31.5472 36.6695C30.5808 36.9538 29.5664 36.9951 28.584 36.7901C29.4432 39.6709 31.9088 41.6436 34.7168 41.7005C32.392 43.6681 29.52 44.7363 26.5632 44.7329C26.0416 44.7312 25.52 44.6984 25 44.6312C28.0032 46.7057 31.496 47.8066 35.064 47.8015" fill="#828282"/>
</svg>
