<svg width="100" height="100" viewBox="0 0 100 100" fill="none" xmlns="http://www.w3.org/2000/svg">
<path d="M37.2276 74.3916C35.4686 73.4426 33.4395 73.2361 31.5147 73.8067C27.5547 74.995 25.2945 79.1817 26.4809 83.1414C27.0536 85.0598 28.3422 86.6408 30.1054 87.5939C31.214 88.1912 32.429 88.4939 33.6542 88.4939C34.3763 88.4939 35.1024 88.3896 35.8142 88.1768C37.7349 87.6042 39.314 86.3156 40.2672 84.5546C41.2163 82.7916 41.4229 80.7627 40.8501 78.8442C40.2774 76.9257 38.9908 75.3427 37.2276 74.3916ZM36.9658 82.7691C36.4933 83.6527 35.7017 84.2949 34.7404 84.5853C33.7872 84.8717 32.7686 84.7694 31.887 84.2908C31.0054 83.8183 30.3611 83.0289 30.0747 82.0655C29.4815 80.0857 30.6127 77.9934 32.5886 77.4002C32.9465 77.2918 33.3086 77.2387 33.6686 77.2387C34.2822 77.2387 34.8897 77.3921 35.444 77.6927C36.3276 78.1672 36.9699 78.9588 37.2563 79.918C37.5467 80.8752 37.4424 81.8896 36.9658 82.7691Z" fill="white"/>
<path d="M93.9889 64.0116C94.0155 63.7682 93.995 63.5187 93.9214 63.2671L91.7675 56.0821C91.4689 55.0922 90.4318 54.5256 89.4337 54.8242C88.4416 55.1228 87.8791 56.168 88.1757 57.162L89.7896 62.5513L47.4897 75.183C46.1704 72.0291 43.8365 69.4378 40.7868 67.7934C37.8147 66.1899 34.4725 65.6581 31.1977 66.2123L16.6525 17.5878C16.5789 17.3403 16.4562 17.1194 16.3007 16.9333C15.8364 16.3647 15.0612 16.1029 14.3166 16.3279L5.33711 19.0175C4.34507 19.3161 3.78257 20.3612 4.07916 21.3511C4.32257 22.1611 5.06711 22.6867 5.87506 22.6867C6.05302 22.6867 6.23302 22.6601 6.41302 22.609L13.5987 20.4573L27.6079 67.2841C20.7966 70.2886 17.1066 77.9788 19.2973 85.2907C20.4448 89.1297 23.02 92.2917 26.5464 94.1938C28.7636 95.3924 31.1936 95.9998 33.6461 95.9998C35.0922 95.9998 36.5425 95.7871 37.9661 95.3638C41.8034 94.2143 44.9656 91.6434 46.8699 88.1153C48.4286 85.2294 48.9706 81.9815 48.4899 78.7949L92.6593 65.6029C93.3568 65.3942 93.8191 64.8134 93.9459 64.1466C93.9561 64.1016 93.9827 64.0587 93.9889 64.0116ZM43.5665 86.3318C42.1388 88.9784 39.7681 90.9071 36.8902 91.7681C34.0061 92.6312 30.9666 92.3183 28.3239 90.8907C25.6811 89.4631 23.7502 87.0947 22.8871 84.2129C21.1096 78.2734 24.4989 71.9882 30.4409 70.2109C31.5066 69.8939 32.5968 69.7343 33.6809 69.7343C35.5197 69.7343 37.3422 70.1925 39.0072 71.0883C41.652 72.5139 43.5808 74.8864 44.444 77.7662C45.3052 80.6479 44.9922 83.6872 43.5665 86.3318Z" fill="white"/>
<path d="M28.3075 43.4547L33.6809 61.4163C33.9775 62.4062 35.0206 62.9748 36.0147 62.6742C37.0068 62.3756 37.5693 61.3325 37.2727 60.3405L32.4372 44.1766L71.9553 32.3529L79.4784 57.4996L48.942 66.6359C47.9499 66.9345 47.3854 67.9776 47.682 68.9695C47.9254 69.7815 48.6699 70.3072 49.4779 70.3072C49.6558 70.3072 49.8379 70.2826 50.0158 70.2294L82.3503 60.5573C83.3423 60.2607 83.9068 59.2156 83.6103 58.2236L75.0112 29.4833C74.868 29.0068 74.5428 28.6059 74.105 28.3687C73.6653 28.1334 73.156 28.0823 72.6773 28.2234L60.104 31.9868L52.6688 7.33497C52.3722 6.34505 51.3269 5.7826 50.3369 6.07917L41.4106 8.75849H41.4086L35.8695 10.4193L21.5943 14.7C21.1157 14.8412 20.7168 15.1704 20.4816 15.6081C20.2443 16.0479 20.1932 16.5612 20.3384 17.0357L28.3075 43.4547ZM43.0061 20.6334L39.989 19.0074C39.0808 18.5124 37.9415 18.856 37.4486 19.7662L35.8224 22.785L33.5029 15.0416L33.5315 15.0334L40.6865 12.8879L43.0061 20.6334ZM29.9111 16.1195L33.5234 28.1928C33.7402 28.9209 34.3763 29.4445 35.1311 29.5222C35.1945 29.5283 35.2579 29.5324 35.3213 29.5324C36.0065 29.5324 36.6427 29.1561 36.972 28.5466L39.8602 23.1961L45.2131 26.082C45.8799 26.4502 46.7001 26.3663 47.2872 25.8877C47.8763 25.4091 48.1156 24.6217 47.8988 23.8936L44.2824 11.81L49.6231 10.2086L56.5081 33.0442L31.3593 40.5831L24.4702 17.7495L29.9111 16.1195Z" fill="white"/>
<path d="M61.7015 56.9473C61.9449 57.7593 62.6895 58.2849 63.4974 58.2849C63.6754 58.2849 63.8574 58.2583 64.0354 58.2072L73.017 55.5238C74.009 55.2252 74.5735 54.18 74.2769 53.1881C73.9804 52.1982 72.9249 51.6296 71.9451 51.9282L62.9636 54.6157C61.9695 54.9102 61.4049 55.9594 61.7015 56.9473Z" fill="white"/>
<path d="M69.793 44.7433L60.8094 47.4308C59.8174 47.7273 59.2529 48.7704 59.5494 49.7624C59.7929 50.5744 60.5374 51.1 61.3453 51.1C61.5233 51.1 61.7053 51.0734 61.8813 51.0223L70.8649 48.3368C71.8589 48.0403 72.4214 46.9972 72.1249 46.0032C71.8283 45.0112 70.7769 44.4508 69.793 44.7433Z" fill="white"/>
</svg>
