<svg width="75" height="75" viewBox="0 0 75 75" fill="none" xmlns="http://www.w3.org/2000/svg">
<path d="M27.9208 55.7937C26.6014 55.082 25.0796 54.927 23.6361 55.355C20.6661 56.2462 18.9709 59.3863 19.8607 62.356C20.2902 63.7949 21.2567 64.9806 22.5791 65.6955C23.4105 66.1434 24.3218 66.3704 25.2407 66.3704C25.7822 66.3704 26.3268 66.2922 26.8607 66.1326C28.3012 65.7031 29.4855 64.7367 30.2004 63.416C30.9122 62.0937 31.0672 60.572 30.6376 59.1332C30.2081 57.6943 29.2431 56.507 27.9208 55.7937ZM27.7244 62.0768C27.37 62.7395 26.7763 63.2212 26.0553 63.439C25.3404 63.6538 24.5764 63.5771 23.9153 63.2181C23.2541 62.8638 22.7708 62.2716 22.5561 61.5492C22.1112 60.0643 22.9595 58.495 24.4415 58.0502C24.7099 57.9689 24.9814 57.929 25.2514 57.929C25.7117 57.929 26.1673 58.044 26.583 58.2695C27.2458 58.6254 27.7275 59.2191 27.9422 59.9385C28.1601 60.6564 28.0818 61.4172 27.7244 62.0768Z" fill="white"/>
<path d="M70.4917 48.0088C70.5116 47.8263 70.4963 47.6392 70.441 47.4505L68.8256 42.0617C68.6017 41.3192 67.8239 40.8943 67.0752 41.1183C66.3312 41.3422 65.9093 42.1261 66.1318 42.8716L67.3422 46.9136L35.6173 56.3873C34.6278 54.022 32.8774 52.0784 30.5901 50.8451C28.361 49.6425 25.8544 49.2437 23.3983 49.6594L12.4894 13.191C12.4342 13.0054 12.3421 12.8397 12.2255 12.7001C11.8773 12.2737 11.2959 12.0773 10.7375 12.2461L4.00283 14.2632C3.2588 14.4872 2.83693 15.271 3.05937 16.0135C3.24193 16.6209 3.80033 17.0152 4.4063 17.0152C4.53976 17.0152 4.67476 16.9952 4.80976 16.9569L10.199 15.3431L20.706 50.4632C15.5975 52.7166 12.83 58.4843 14.473 63.9682C15.3336 66.8474 17.265 69.2189 19.9098 70.6455C21.5727 71.5444 23.3952 72 25.2346 72C26.3192 72 27.4068 71.8405 28.4746 71.5229C31.3525 70.6609 33.7242 68.7327 35.1524 66.0866C36.3214 63.9222 36.728 61.4862 36.3674 59.0963L69.4945 49.2023C70.0176 49.0458 70.3643 48.6102 70.4594 48.1101C70.4671 48.0763 70.487 48.0441 70.4917 48.0088ZM32.6749 64.749C31.6041 66.7339 29.8261 68.1804 27.6676 68.8262C25.5046 69.4736 23.2249 69.2389 21.2429 68.1682C19.2609 67.0975 17.8127 65.3211 17.1653 63.1598C15.8322 58.7052 18.3742 53.9913 22.8307 52.6583C23.6299 52.4205 24.4476 52.3009 25.2607 52.3009C26.6398 52.3009 28.0067 52.6445 29.2554 53.3164C31.239 54.3855 32.6856 56.1649 33.333 58.3247C33.9789 60.4861 33.7442 62.7656 32.6749 64.749Z" fill="white"/>
<path d="M21.2306 32.591L25.2606 46.0622C25.4831 46.8047 26.2655 47.2311 27.011 47.0056C27.7551 46.7817 28.1769 45.9994 27.9545 45.2554L24.3279 33.1325L53.9665 24.2646L59.6088 43.1247L36.7065 49.9769C35.9624 50.2009 35.539 50.9832 35.7615 51.7272C35.944 52.3361 36.5024 52.7304 37.1084 52.7304C37.2419 52.7304 37.3784 52.712 37.5119 52.6721L61.7627 45.418C62.5067 45.1956 62.9301 44.4117 62.7077 43.6677L56.2584 22.1125C56.151 21.7551 55.9071 21.4544 55.5788 21.2765C55.249 21.1001 54.867 21.0617 54.508 21.1676L45.078 23.9901L39.5016 5.50123C39.2791 4.75879 38.4952 4.33695 37.7527 4.55938L31.058 6.56887H31.0564L26.9021 7.81444L16.1957 11.025C15.8368 11.1309 15.5376 11.3778 15.3612 11.7061C15.1832 12.0359 15.1449 12.4209 15.2538 12.7768L21.2306 32.591ZM32.2545 15.475L29.9918 14.2555C29.3106 13.8843 28.4561 14.142 28.0864 14.8246L26.8668 17.0888L25.1272 11.2812L25.1487 11.2751L30.5149 9.66593L32.2545 15.475ZM22.4333 12.0896L25.1425 21.1446C25.3051 21.6907 25.7822 22.0834 26.3483 22.1416C26.3959 22.1462 26.4434 22.1493 26.491 22.1493C27.0049 22.1493 27.482 21.8671 27.729 21.4099L29.8951 17.3971L33.9098 19.5615C34.4099 19.8376 35.0251 19.7747 35.4654 19.4158C35.9072 19.0568 36.0867 18.4663 35.9241 17.9202L33.2118 8.85754L37.2173 7.65644L42.381 24.7831L23.5195 30.4373L18.3527 13.3122L22.4333 12.0896Z" fill="white"/>
<path d="M46.2761 42.7105C46.4587 43.3195 47.0171 43.7137 47.6231 43.7137C47.7565 43.7137 47.8931 43.6938 48.0265 43.6554L54.7627 41.6428C55.5068 41.4189 55.9302 40.635 55.7077 39.8911C55.4853 39.1486 54.6937 38.7222 53.9589 38.9461L47.2227 40.9618C46.4771 41.1827 46.0537 41.9696 46.2761 42.7105Z" fill="white"/>
<path d="M52.3449 33.5574L45.6072 35.573C44.8631 35.7954 44.4397 36.5778 44.6622 37.3217C44.8447 37.9307 45.4031 38.3249 46.0091 38.3249C46.1426 38.3249 46.2791 38.305 46.411 38.2667L53.1487 36.2526C53.8943 36.0301 54.3162 35.2478 54.0937 34.5023C53.8713 33.7583 53.0828 33.338 52.3449 33.5574Z" fill="white"/>
</svg>
